<svg enable-background="new 0 0 1609.1 1600.2" viewBox="0 0 1609.1 1600.2" xmlns="http://www.w3.org/2000/svg"><g fill="#efefef"><path d="m5.6 68.6v-67.2h13v27.1h23v-27.1h13v67.2h-13v-29.1h-23v29.1z"/><path d="m116.4 68.6-3.8-11h-25.6l-3.8 11h-13l24.3-67.2h11l24.2 67.2zm-16.7-48-9.1 26.2h18.3l-9-26.2z"/><path d="m145.4 68.6v-67.2h13.3l19.5 43.6h.2l19.5-43.6h13.4v67.2h-12.7v-41.2h-.2l-19.1 41.3h-2.1l-19.1-41.3h-.1v41.3h-12.6z"/><path d="m234.7 68.6v-67.2h13v67.2z"/><path d="m271 68.6v-67.2h13v55.2h27.7v12z"/><path d="m331.6 68.6v-55.2h-19.6v-12h52.3v12h-19.7v55.2z"/><path d="m415.6 68.1c-7 2.7-14.7 2.7-21.7 0-3.5-1.4-6.6-3.4-9.3-6.1-3-3.1-5.3-7-6.6-11.1-1.7-5.3-2.5-10.8-2.4-16.4-.1-5.1.8-10.2 2.4-15.1 1.4-4.1 3.6-7.8 6.6-10.9 2.7-2.7 5.8-4.9 9.3-6.3 6.9-2.9 14.7-2.9 21.6 0 3.5 1.5 6.7 3.6 9.3 6.3 3 3.1 5.2 6.8 6.6 10.9 1.7 4.8 2.5 9.9 2.5 15.1.1 5.6-.7 11.1-2.4 16.4-1.3 4.2-3.6 8-6.6 11.2-2.6 2.5-5.8 4.6-9.3 6zm-22.1-15.6c4.7 6.3 13.5 7.6 19.8 2.9 1.1-.8 2-1.8 2.8-2.8 2.9-3.7 4.4-9.8 4.4-18.1 0-7.3-1.5-12.9-4.6-16.7-3-3.8-6.8-5.8-11.2-5.8-4.5 0-8.6 2.1-11.2 5.8-3 3.8-4.5 9.4-4.5 16.7.1 8.2 1.5 14.2 4.5 18z"/><path d="m453 68.6v-67.2h13l24.5 44.1h.2v-44.1h13.1v67.2h-12.8l-24.9-44.1h-.1v44.1z"/><path d="m558.6 68.6v-67.2h13v67.2z"/><path d="m590.6 46.2 13.6-3c.8 5.3 2.2 9 4.1 11.4 1.9 2.3 5 3.5 9.3 3.5 3 .1 6.1-.6 8.7-2 2.1-1.2 3.4-3.4 3.3-5.8.1-2.5-1.1-4.8-3.1-6.2-2.1-1.4-6.8-3.2-14.3-5.6-7-2.2-11.9-4.8-14.8-7.9s-4.5-7.2-4.3-11.5c0-5.2 2.2-10.1 6.1-13.5 4-3.7 9.6-5.6 16.5-5.6 5.8-.2 11.5 1.4 16.4 4.6 4.6 3.1 7.4 7.6 8.6 13.7l-12.7 3.2c-2-6.3-6.1-9.5-12.4-9.5-3.3 0-5.8.6-7.4 1.9-1.6 1.2-2.5 3.1-2.4 5.1 0 1.9 1.1 3.7 2.8 4.6 1.9 1.1 6.6 2.9 14.3 5.5 7.4 2.6 12.5 5.3 15.3 8.3 2.7 3 4.1 7 4.1 12 .1 5.7-2.4 11.1-6.7 14.8-4.5 3.9-10.5 5.9-18 5.9-7.6 0-13.8-2-18.5-6-4.8-4.1-7.6-10-8.5-17.9z"/><path d="m691.3 68.6v-67.2h13v27.1h23v-27.1h13v67.2h-13v-29.1h-23v29.1z"/><path d="m799.3 68.1c-7 2.7-14.7 2.7-21.7 0-3.5-1.4-6.6-3.4-9.3-6.1-3-3.1-5.3-7-6.6-11.1-1.7-5.3-2.6-10.8-2.5-16.4-.1-5.1.8-10.2 2.5-15.1 1.4-4.1 3.6-7.8 6.6-10.9 2.7-2.7 5.8-4.9 9.3-6.3 6.9-2.9 14.7-2.9 21.6 0 3.5 1.5 6.7 3.6 9.3 6.3 3 3.1 5.2 6.8 6.6 10.9 1.7 4.8 2.5 9.9 2.5 15.1.1 5.6-.7 11.1-2.5 16.4-1.3 4.2-3.6 8-6.6 11.2-2.6 2.5-5.8 4.6-9.2 6zm-22.2-15.6c4.7 6.3 13.5 7.6 19.8 2.9 1.1-.8 2-1.8 2.8-2.8 2.9-3.7 4.4-9.8 4.4-18.1 0-7.3-1.5-12.9-4.6-16.7s-6.8-5.8-11.2-5.8c-4.5 0-8.6 2.1-11.2 5.8-3 3.8-4.5 9.4-4.5 16.7.1 8.2 1.5 14.2 4.5 18z"/><path d="m836.6 68.6v-67.2h13.4l19.4 43.6h.2l19.5-43.6h13.4v67.2h-12.7v-41.2h-.2l-19.1 41.3h-2.1l-19.1-41.3h-.2v41.3h-12.5z"/><path d="m925.4 68.6v-67.2h42.5v12h-29.6v15.1h26.9v11.5h-26.9v16.6h29.6v12z"/><path d="m988.4 68.6v-13.6h14.3v13.6z"/><path d="m1058.5 68.6v-67.2h8v28.9h30v-28.9h7.9v67.2h-7.9v-31.2h-30v31.2z"/><path d="m1154.7 70.1c-3.6 0-7.2-.6-10.6-2s-6.4-3.5-9-6.1c-3-3.2-5.2-7-6.5-11.1-1.7-5.3-2.5-10.8-2.4-16.4 0-10.9 2.8-19.4 8.3-25.4 5.1-5.8 12.5-9.1 20.2-9 7.7 0 14.3 3.1 19.8 9.2s8.3 14.7 8.3 25.6c.1 5.5-.7 11-2.3 16.3-1.2 4.1-3.4 7.9-6.4 11-2.5 2.6-5.6 4.6-8.9 6-3.3 1.3-6.9 1.9-10.5 1.9zm0-7.5c5.6.1 10.9-2.5 14.2-7 3.6-4.7 5.5-11.6 5.5-20.7 0-8.8-1.9-15.6-5.6-20.3s-8.4-7-14.1-7c-5.6-.1-10.9 2.4-14.3 6.8-3.8 4.5-5.7 11.2-5.7 20.1 0 9.2 1.9 16.2 5.6 21 3.3 4.6 8.7 7.2 14.4 7.1z"/><path d="m1204.8 68.6v-67.2h11.2l21 51.6h.2l21-51.5h11.2v67.2h-7.8v-56.1h-.2l-23.1 56.1h-2.5l-23.1-56.1h-.2v56.1h-7.7z"/><path d="m1295.2 68.6v-67.2h40.4v7.3h-32.4v21.8h29.8v7.1h-29.8v23.7h32.4v7.3z"/><path d="m1404.5 68.6v-59.9h-20.8v-7.3h49.4v7.3h-20.7v59.9z"/><path d="m1475.9 70.1c-3.6 0-7.2-.6-10.6-2s-6.4-3.5-9-6.1c-3-3.2-5.2-7-6.5-11.1-1.7-5.3-2.5-10.8-2.4-16.4 0-10.9 2.8-19.4 8.3-25.4 5.1-5.8 12.5-9.1 20.2-9 7.7 0 14.3 3.1 19.8 9.2s8.3 14.7 8.3 25.6c.1 5.5-.7 11-2.3 16.3-1.2 4.1-3.4 7.9-6.4 11-2.5 2.6-5.6 4.6-8.9 6-3.4 1.3-7 1.9-10.5 1.9zm0-7.5c5.6.1 10.9-2.5 14.2-7 3.7-4.7 5.5-11.6 5.5-20.7 0-8.8-1.9-15.6-5.6-20.3s-8.4-7-14.1-7c-5.6-.1-10.9 2.4-14.3 6.8-3.8 4.5-5.7 11.2-5.7 20.1 0 9.2 1.9 16.2 5.6 21 3.3 4.6 8.7 7.2 14.4 7.1z"/><path d="m1550.2 68.6 24.2-67.2h7.8l24.2 67.2h-8.1l-5-13.2h-30.2l-4.9 13.2zm15.3-20h25.5l-12.7-36.5h-.2z"/><path d="m6.8 259.9v-67.2h8.6l30.6 54h.2v-54h7.9v67.2h-8.4l-30.8-54.1h-.2v54.1z"/><path d="m72.5 259.9v-67.2h40.5v7.3h-32.5v21.8h29.8v7.1h-29.8v23.7h32.5v7.3z"/><path d="m136.6 259.9-12.4-67.2h8.2l10.1 55.5h.2l16.7-55.5h8.4l16.8 55.5h.2l9.9-55.5h8.2l-12.4 67.2h-9.8l-17-55.7h-.2l-16.9 55.7z"/><path d="m248.1 259.9-12.4-67.2h8.2l10.1 55.5h.2l16.7-55.5h8.4l16.8 55.5h.2l9.9-55.5h8.2l-12.4 67.2h-9.8l-17-55.7h-.2l-17 55.7z"/><path d="m315.9 259.9 24.2-67.2h7.8l24.2 67.2h-8.1l-5-13.2h-30.1l-4.9 13.2zm15.4-20.1h25.4l-12.7-36.4h-.2z"/><path d="m389.7 259.9v-59.9h-20.8v-7.3h49.4v7.3h-20.7v59.9z"/><path d="m430 259.9v-67.2h40.4v7.3h-32.4v21.8h29.8v7.1h-29.8v23.7h32.5v7.3z"/><path d="m486.5 259.9v-67.2h25.8c7 0 12.5 1.7 16.5 5s6 8.3 6 14.9c0 5.4-1.5 9.7-4.5 13-3.2 3.4-7.4 5.6-12 6.2l15 28h-8.9l-14.6-27.5h-15.3v27.5zm8-34.5h17.4c4.5 0 8.1-1 10.8-3 2.8-2 4.1-5.2 4.1-9.6 0-8.4-5.1-12.7-15.2-12.7h-17.2z"/><path d="m548.4 259.9v-67.2h40.5v7.3h-32.5v24.3h29.8v7h-29.8v28.6z"/><path d="m603 259.9v-67.2h25.8c7 0 12.5 1.7 16.5 5s6 8.3 6 14.9c0 5.4-1.5 9.7-4.5 13-3.2 3.4-7.4 5.6-12 6.2l15 28h-8.9l-14.6-27.5h-15.3v27.5zm8-34.5h17.4c4.5 0 8.1-1 10.8-3 2.8-2 4.1-5.2 4.1-9.6 0-8.4-5.1-12.7-15.2-12.7h-17.1z"/><path d="m689.6 261.4c-3.6 0-7.2-.6-10.6-2s-6.4-3.5-9-6.1c-3-3.2-5.2-7-6.5-11.1-1.7-5.3-2.5-10.8-2.4-16.4 0-10.9 2.8-19.4 8.3-25.4 5.1-5.8 12.5-9.1 20.2-9 7.7 0 14.3 3.1 19.8 9.2s8.3 14.7 8.3 25.6c.1 5.5-.7 11-2.3 16.3-1.2 4.1-3.4 7.9-6.4 11-2.5 2.6-5.6 4.6-8.9 6-3.3 1.2-6.9 1.9-10.5 1.9zm0-7.5c5.6.1 10.9-2.5 14.2-7 3.7-4.7 5.5-11.6 5.5-20.7 0-8.8-1.9-15.6-5.6-20.2s-8.4-7-14.1-7c-5.6-.1-10.9 2.4-14.3 6.8-3.8 4.5-5.7 11.2-5.7 20.1 0 9.2 1.9 16.2 5.6 21 3.3 4.4 8.7 7.1 14.4 7z"/><path d="m732.3 259.9v-67.2h8.7l30.6 54h.2v-54h7.9v67.2h-8.3l-30.8-54.1h-.2v54.1z"/><path d="m812.2 259.9v-59.9h-20.8v-7.3h49.4v7.3h-20.7v59.9z"/><path d="m842.9 259.9v-11.3h11.3v11.3z"/><path d="m888.2 259.9v-67.2h8v28.9h30v-28.9h7.9v67.2h-7.9v-31.2h-30v31.2z"/><path d="m977.2 261.4c-3.6 0-7.2-.6-10.6-2s-6.4-3.5-9-6.1c-3-3.2-5.2-7-6.5-11.1-1.7-5.3-2.5-10.8-2.4-16.4 0-10.9 2.8-19.4 8.3-25.4 5.1-5.8 12.5-9.1 20.2-9 7.7 0 14.3 3.1 19.8 9.2s8.3 14.7 8.3 25.6c.1 5.5-.7 11-2.3 16.3-1.2 4.1-3.4 7.9-6.4 11-2.5 2.6-5.6 4.6-8.9 6-3.3 1.2-6.9 1.9-10.5 1.9zm0-7.5c5.6.1 10.9-2.5 14.2-7 3.6-4.7 5.5-11.6 5.5-20.7 0-8.8-1.9-15.6-5.6-20.2-3.3-4.4-8.5-7-14.1-7-5.6-.1-10.9 2.4-14.3 6.8-3.8 4.5-5.7 11.2-5.7 20.1 0 9.2 1.9 16.2 5.6 21 3.3 4.4 8.7 7.1 14.4 7z"/><path d="m1020 259.9v-67.2h11.2l21 51.6h.2l21-51.6h11.2v67.2h-7.8v-56.1h-.2l-23.1 56.1h-2.5l-23.1-56.1h-.2v56.1z"/><path d="m1103.1 259.9v-67.2h40.4v7.3h-32.4v21.8h29.8v7.1h-29.8v23.7h32.4v7.3z"/><path d="m1197.8 259.9v-59.9h-20.8v-7.3h49.4v7.3h-20.7v59.9z"/><path d="m1261.9 261.4c-3.6 0-7.2-.6-10.6-2s-6.4-3.5-9-6.1c-3-3.2-5.2-7-6.5-11.1-1.7-5.3-2.5-10.8-2.4-16.4 0-10.9 2.8-19.4 8.3-25.4 5.1-5.8 12.5-9.1 20.2-9 7.7 0 14.3 3.1 19.8 9.2s8.3 14.7 8.3 25.6c.1 5.5-.7 11-2.4 16.3-1.2 4.1-3.4 7.9-6.4 11-2.6 2.6-5.6 4.6-8.9 6-3.3 1.2-6.8 1.9-10.4 1.9zm0-7.5c5.6.1 10.9-2.5 14.2-7 3.6-4.7 5.5-11.6 5.5-20.7 0-8.8-1.9-15.6-5.6-20.2-3.3-4.4-8.5-7-14.1-7-5.6-.1-10.9 2.4-14.3 6.8-3.8 4.5-5.7 11.2-5.7 20.1 0 9.2 1.9 16.2 5.6 21 3.3 4.4 8.7 7.1 14.4 7z"/><path d="m1321.6 259.9 24.2-67.2h7.8l24.2 67.2h-8.1l-5-13.2h-30.1l-4.9 13.2zm15.4-20.1h25.4l-12.7-36.5h-.2z"/><path d="m1413.2 259.9v-67.2h8.6l30.6 54h.2v-54h7.9v67.2h-8.3l-30.8-54.1h-.2v54.1z"/><path d="m1478.9 259.9v-67.2h40.4v7.3h-32.5v21.8h29.8v7.1h-29.8v23.7h32.4v7.3z"/><path d="m1543 259.9-12.4-67.2h8.2l10.1 55.5h.2l16.7-55.5h8.3l16.8 55.5h.2l9.9-55.5h8.2l-12.4 67.2h-9.8l-17-55.7h-.2l-16.9 55.7z"/><path d="m6.8 451.2v-67.2h40.4v7.3h-32.4v21.8h29.8v7.1h-29.8v23.7h32.4v7.3z"/><path d="m70.6 451.2v-67.2h8.6l30.6 54h.2v-54h7.9v67.2h-8.3l-30.8-54h-.2v54z"/><path d="m157.9 451.2v-59.9h-20.8v-7.3h49.4v7.3h-20.7v59.9z"/><path d="m205.6 451.2v-67.2h40.4v7.3h-32.4v21.8h29.8v7.1h-29.8v23.7h32.4v7.3z"/><path d="m269.4 451.2v-67.2h25.8c7 0 12.5 1.7 16.5 5s6 8.3 6 14.9c0 5.4-1.5 9.7-4.5 13-3.2 3.4-7.4 5.6-12 6.2l15 28h-8.9l-14.6-27.5h-15.3v27.5zm8-34.6h17.4c4.5 0 8.1-1 10.9-3s4.1-5.2 4.1-9.6c0-8.5-5.1-12.7-15.2-12.7h-17.2z"/><path d="m352.9 451.2v-59.9h-20.9v-7.3h49.4v7.3h-20.7v59.9z"/><path d="m387.6 451.2 24.2-67.2h7.8l24.2 67.2h-8.1l-5-13.1h-30.1l-4.9 13.1zm15.4-20.1h25.4l-12.7-36.5h-.2z"/><path d="m462.9 451.2v-67.2h8v67.2z"/><path d="m497.1 451.2v-67.2h8.6l30.6 54h.2v-54h7.9v67.2h-8.3l-30.8-54h-.2v54z"/><path d="m570.3 451.2v-67.2h11.2l21 51.6h.2l21-51.6h11.3v67.2h-7.8v-56.1h-.2l-23.1 56.1h-2.5l-23.1-56.1h-.3v56.1z"/><path d="m660.8 451.2v-67.2h40.4v7.3h-32.5v21.8h29.8v7.1h-29.8v23.7h32.5v7.3z"/><path d="m724.7 451.2v-67.2h8.6l30.6 54h.2v-54h7.9v67.2h-8.3l-30.8-54h-.2v54z"/><path d="m811.9 451.2v-59.9h-20.8v-7.3h49.5v7.3h-20.7v59.9z"/><path d="m888.3 451.2v-67.2h8v28.9h30v-28.9h7.9v67.2h-7.9v-31.2h-30v31.2z"/><path d="m958.6 429.3v-45.3h8v44.7c0 10.9 5.3 16.4 15.8 16.4 5.3 0 9.3-1.4 12-4.2s4.1-6.8 4.1-12v-44.9h7.9v45.3c0 7.7-2.1 13.5-6.3 17.4s-10.1 5.9-17.6 5.9-13.4-2-17.6-5.9c-4.1-3.9-6.2-9.7-6.3-17.4z"/><path d="m1030.7 451.2v-67.2h25.8c6 0 10.7 1.6 14.3 4.9 3.5 3.2 5.5 7.7 5.3 12.5 0 6.5-2.8 11-8.4 13.4v.3c3.1 1 5.8 3 7.7 5.7 2.2 3.1 3.3 6.8 3.2 10.6 0 6.3-1.9 11.1-5.8 14.6s-9.8 5.2-17.9 5.2zm8-38.8h16.4c8.8 0 13.2-3.5 13.2-10.6.2-3-1.1-5.9-3.5-7.8-2.3-1.8-5.6-2.7-9.7-2.7h-16.3zm0 31.5h15.2c5.6 0 9.9-1 12.7-3s4.2-5.2 4.2-9.6c0-4.3-1.3-7.3-4-9.1s-6.9-2.7-12.7-2.7h-15.4z"/><path d="m1097.7 451.2v-11.3h11.3v11.3z"/><path d="m1157.8 451.2v-67.2h8v28.9h30v-28.9h7.9v67.2h-7.9v-31.2h-30v31.2z"/><path d="m1254.2 452.6c-3.6 0-7.2-.6-10.6-2s-6.4-3.5-9-6.1c-3-3.2-5.2-7-6.5-11.1-1.7-5.3-2.5-10.8-2.4-16.4 0-10.9 2.8-19.4 8.4-25.4 5.1-5.8 12.4-9.1 20.2-9 7.7 0 14.3 3.1 19.8 9.2s8.3 14.7 8.3 25.6c.1 5.5-.7 11-2.4 16.3-1.2 4.1-3.4 7.9-6.4 11-2.5 2.6-5.6 4.6-8.9 6-3.3 1.3-6.9 2-10.5 1.9zm0-7.5c5.6.1 10.9-2.5 14.2-7 3.6-4.7 5.5-11.6 5.5-20.7 0-8.8-1.9-15.6-5.6-20.2-3.3-4.5-8.5-7.1-14.1-7-5.6-.1-10.9 2.4-14.4 6.8-3.8 4.5-5.7 11.2-5.7 20.1 0 9.2 1.9 16.2 5.6 21 3.4 4.5 8.8 7.2 14.5 7z"/><path d="m1304.3 451.2v-67.2h11.2l21 51.6h.2l21-51.6h11.3v67.2h-7.8v-56.1h-.2l-23.1 56.1h-2.5l-23.1-56.1h-.2v56.1z"/><path d="m1394.8 451.2v-67.2h40.4v7.3h-32.4v21.8h29.8v7.1h-29.8v23.7h32.4v7.3z"/><path d="m1504.4 451.2v-59.9h-20.8v-7.3h49.4v7.3h-20.7v59.9z"/><path d="m1575.8 452.6c-3.6 0-7.2-.6-10.6-2s-6.4-3.5-9-6.1c-3-3.2-5.2-7-6.5-11.1-1.7-5.3-2.5-10.8-2.4-16.4 0-10.9 2.8-19.4 8.3-25.4 5.1-5.8 12.5-9.1 20.2-9 7.7 0 14.3 3.1 19.8 9.2s8.3 14.7 8.3 25.6c.1 5.5-.7 11-2.3 16.3-1.2 4.1-3.4 7.9-6.4 11-2.5 2.6-5.6 4.6-8.9 6-3.3 1.3-6.9 2-10.5 1.9zm0-7.5c5.6.1 10.9-2.5 14.2-7 3.7-4.7 5.5-11.6 5.5-20.7 0-8.8-1.9-15.6-5.6-20.2-3.7-4.7-8.4-7-14.1-7-5.6-.1-10.9 2.4-14.3 6.8-3.8 4.5-5.7 11.2-5.7 20.1 0 9.2 1.9 16.2 5.6 21 3.3 4.5 8.7 7.2 14.4 7z"/><path d="m34.7 643.9c-3.6 0-7.2-.6-10.6-2s-6.4-3.5-9-6.1c-3-3.2-5.2-7-6.5-11.1-1.7-5.3-2.5-10.8-2.4-16.4 0-10.9 2.8-19.4 8.4-25.4 5.1-5.8 12.5-9.1 20.2-9 7.7 0 14.3 3.1 19.8 9.2s8.3 14.7 8.3 25.6c.1 5.5-.7 11-2.4 16.3-1.2 4.1-3.4 7.9-6.4 11-2.5 2.6-5.6 4.6-8.9 6-3.4 1.3-7 1.9-10.5 1.9zm0-7.5c5.6.1 10.9-2.5 14.2-7 3.7-4.7 5.5-11.6 5.5-20.7 0-8.8-1.9-15.6-5.6-20.3-3.3-4.4-8.5-7-14.1-7-5.6-.1-10.9 2.4-14.4 6.8-3.8 4.5-5.7 11.2-5.7 20.1 0 9.2 1.9 16.2 5.6 21 3.4 4.6 8.8 7.2 14.5 7.1z"/><path d="m92 642.4-23.7-67.2h8.5l19.8 57.5h.2l19.4-57.5h8.4l-23.2 67.2z"/><path d="m136.8 642.4v-67.2h40.4v7.3h-32.4v21.8h29.8v7.1h-29.8v23.7h32.4v7.3z"/><path d="m194.2 642.4v-67.2h25.8c7 0 12.5 1.7 16.5 5s6 8.3 6 14.9c0 5.4-1.5 9.7-4.5 13-3.2 3.4-7.4 5.6-12 6.2l15 28h-9l-14.6-27.3h-15.3v27.5zm8-34.5h17.4c4.5 0 8.1-1 10.9-3s4.1-5.2 4.1-9.7c0-8.5-5.1-12.7-15.2-12.7h-17.2z"/><path d="m279.3 642.4v-6c0-6.2 1.1-11 3.5-14.4 2.1-3.3 7.1-7.1 15-11.2l5.4-3c.9-.5 2.3-1.3 4.1-2.5 1.3-.8 2.5-1.7 3.6-2.7.6-.6 1.3-1.5 2.2-2.6.8-1 1.4-2.1 1.7-3.3s.4-2.5.4-3.8c0-3.1-1.2-6.2-3.4-8.4-2.3-2.3-5.7-3.5-10.2-3.5-4.4 0-8 1.4-10.6 4.1-2.7 2.7-4.1 6.5-4.4 11.5l-7.7-.8c.3-6.9 2.5-12.3 6.7-16.2s9.6-5.8 16.2-5.8c6.7 0 11.8 1.9 15.5 5.6s5.7 8.7 5.6 13.9c0 2.6-.4 5.2-1.2 7.7-1 2.4-2.5 4.5-4.5 6.1-1.6 1.4-3.2 2.7-5 3.9-1.2.7-3.4 2-6.6 3.7l-1.3.8-3.2 1.7c-1.4.7-2.3 1.2-2.8 1.5s-1.3.7-2.3 1.3c-.7.4-1.4.9-2.1 1.3l-1.6 1.2c-.6.4-1.1.9-1.5 1.4s-.7.9-1.1 1.4c-1.3 2-1.9 5-1.9 8.9h35.2v8z"/><path d="m359.8 643.9c-7.9 0-14-3.1-18.4-9.3s-6.6-15.1-6.6-26.6c0-11 2.3-19.5 6.9-25.3 7.8-10 22.3-11.8 32.3-4 1.5 1.2 2.8 2.5 4 4 4.6 5.9 6.9 14.3 6.9 25.3 0 11.5-2.2 20.4-6.6 26.6-4.6 6.2-10.7 9.3-18.5 9.3zm-12.6-14.9c2.9 5 7.1 7.5 12.6 7.5s9.7-2.5 12.6-7.5 4.3-12.1 4.3-21.2c0-8.6-1.5-15.2-4.4-19.8-4.3-6.9-13.3-9-20.2-4.8-1.9 1.2-3.6 2.8-4.8 4.8-3 4.6-4.4 11.2-4.4 19.9 0 9.1 1.5 16.1 4.3 21.1z"/><path d="m449.7 643.9c-3.6 0-7.2-.6-10.6-2s-6.4-3.5-9-6.1c-3-3.2-5.2-7-6.5-11.1-1.7-5.3-2.5-10.8-2.4-16.4 0-10.9 2.8-19.4 8.4-25.4 5.1-5.8 12.5-9.1 20.2-9 7.7 0 14.3 3.1 19.8 9.2s8.3 14.7 8.3 25.6c.1 5.5-.7 11-2.4 16.3-1.2 4.1-3.4 7.9-6.4 11-2.5 2.6-5.6 4.6-8.9 6-3.4 1.3-6.9 1.9-10.5 1.9zm0-7.5c5.6.1 10.9-2.5 14.2-7 3.6-4.7 5.5-11.6 5.5-20.7 0-8.8-1.9-15.6-5.6-20.3s-8.4-7-14.1-7c-5.6-.1-10.9 2.4-14.4 6.8-3.8 4.5-5.7 11.2-5.7 20.1 0 9.2 1.9 16.2 5.6 21 3.4 4.6 8.8 7.2 14.5 7.1z"/><path d="m493.4 642.4v-67.2h40.5v7.3h-32.5v24.3h29.9v7h-29.9v28.6z"/><path d="m588.2 642.4v-59.9h-20.8v-7.3h49.4v7.3h-20.7v59.9z"/><path d="m629.5 642.4v-67.2h8v28.9h30v-28.9h7.9v67.2h-7.8v-31.2h-30v31.2z"/><path d="m694.8 642.4v-67.2h40.4v7.3h-32.4v21.8h29.8v7.1h-29.8v23.7h32.4v7.3z"/><path d="m777.3 642.4v-67.2h25.8c6 0 10.7 1.6 14.3 4.9 3.5 3.2 5.5 7.7 5.3 12.5 0 6.5-2.8 11-8.4 13.4v.3c3.1 1 5.8 3 7.7 5.7 2.2 3.1 3.3 6.8 3.2 10.6 0 6.3-1.9 11.1-5.8 14.6s-9.8 5.2-17.9 5.2zm8-38.7h16.4c8.8 0 13.2-3.5 13.2-10.6.2-3-1.1-5.9-3.5-7.8-2.3-1.8-5.6-2.7-9.7-2.7h-16.3zm0 31.4h15.2c5.6 0 9.9-1 12.7-3s4.2-5.2 4.2-9.6-1.3-7.3-4-9.1-6.9-2.7-12.7-2.7h-15.4z"/><path d="m840.8 642.4v-67.2h40.4v7.3h-32.5v21.8h29.8v7.1h-29.8v23.7h32.5v7.3z"/><path d="m893.9 619.3 8.3-1.6c1 6.5 2.8 11.3 5.5 14.3s7.2 4.5 13.4 4.5c5 0 8.8-1.1 11.3-3.4 2.5-2 3.9-5.1 3.8-8.2.1-2.9-1.2-5.8-3.5-7.6-2.3-1.9-7.3-4.1-15.1-6.6-7.4-2.4-12.8-5-16-7.8s-5-7-4.8-11.3c0-4.8 2.1-9.4 5.7-12.5 3.8-3.5 8.9-5.2 15.4-5.2 6.3 0 11.6 1.6 15.8 4.7s6.8 7.7 7.6 13.8l-8.1 1.7c-.8-4.1-2.3-7.2-4.7-9.4s-5.9-3.3-10.7-3.3c-4.2 0-7.5 1-9.7 2.9-2.2 1.8-3.4 4.4-3.4 7.2-.1 2.5 1.1 4.8 3.1 6.2 2 1.6 6.6 3.6 13.6 5.9 8.9 2.9 14.9 5.8 18 8.7s4.6 7 4.6 12.1c.1 5.3-2.2 10.4-6.3 13.8-4.2 3.8-9.9 5.6-17.2 5.6-15.6.1-24.6-8.1-26.6-24.5z"/><path d="m971.5 642.4v-59.9h-20.8v-7.3h49.4v7.3h-20.7v59.9z"/><path d="m1042.7 642.4-12.4-67.2h8.2l10.1 55.5h.2l16.7-55.5h8.3l16.8 55.5h.2l9.9-55.5h8.2l-12.4 67.2h-9.8l-17-55.7h-.2l-16.9 55.7z"/><path d="m1111.4 642.4 24.2-67.2h7.8l24.2 67.2h-8.1l-5-13.2h-30.1l-4.9 13.2zm15.4-20h25.4l-12.7-36.5h-.2z"/><path d="m1186.2 642.4v-59.9h-20.8v-7.3h49.4v7.3h-20.7v59.9z"/><path d="m1227.5 642.4v-67.2h40.4v7.3h-32.4v21.8h29.8v7.1h-29.8v23.7h32.4v7.3z"/><path d="m1284.9 642.4v-67.2h25.8c7 0 12.5 1.7 16.5 5s6 8.3 6 14.9c0 5.4-1.5 9.7-4.5 13-3.2 3.4-7.4 5.6-12 6.2l15 28h-8.9l-14.7-27.4h-15.3v27.5zm8-34.5h17.4c4.5 0 8.1-1 10.8-3 2.8-2 4.1-5.2 4.1-9.7 0-8.5-5.1-12.7-15.2-12.7h-17.2z"/><path d="m1347.8 642.4v-67.2h40.5v7.3h-32.6v24.3h29.9v7h-29.9v28.6z"/><path d="m1391.3 642.4 24.2-67.2h7.8l24.2 67.2h-8.1l-5-13.2h-30.2l-4.9 13.2zm15.4-20h25.4l-12.7-36.5h-.2z"/><path d="m1459.7 642.4v-67.2h8v59.9h29.2v7.3z"/><path d="m1510 642.4v-67.2h8v59.9h29.2v7.3z"/><path d="m1556 619.3 8.3-1.6c1 6.5 2.8 11.3 5.5 14.3s7.2 4.5 13.4 4.5c5 0 8.8-1.1 11.3-3.4 2.5-2 3.9-5.1 3.8-8.2.1-2.9-1.2-5.8-3.4-7.6-2.3-1.9-7.3-4.1-15.1-6.6-7.4-2.4-12.8-5-16-7.8s-5-7-4.8-11.3c0-4.8 2.1-9.4 5.7-12.5 3.8-3.5 8.9-5.2 15.4-5.2 6.3 0 11.6 1.6 15.8 4.7s6.7 7.7 7.6 13.8l-8.1 1.7c-.8-4.1-2.3-7.2-4.7-9.4-2.3-2.2-5.9-3.3-10.7-3.3-4.2 0-7.4 1-9.7 2.9-2.2 1.8-3.4 4.4-3.4 7.2-.1 2.5 1.1 4.8 3.1 6.2 2.1 1.6 6.6 3.6 13.6 5.9 8.9 2.9 14.9 5.8 18 8.7s4.6 7 4.6 12.1c.1 5.3-2.2 10.4-6.2 13.9-4.2 3.8-9.9 5.6-17.2 5.6-15.8 0-24.8-8.2-26.8-24.6z"/><path d="m7.2 833.7v-67.2h8v67.2z"/><path d="m46 833.7v-67.2h8.6l30.6 54h.2v-54h7.9v67.2h-8.3l-30.8-54.1h-.2v54z"/><path d="m159.8 833.7v-67.2h8.6l30.6 54h.2v-54h7.9v67.2h-8.4l-30.8-54h-.2v54z"/><path d="m262.1 835.2c-3.6 0-7.2-.6-10.6-2s-6.4-3.5-9-6.1c-3-3.2-5.2-7-6.5-11.2-1.7-5.3-2.5-10.8-2.4-16.4 0-10.9 2.8-19.4 8.4-25.4 5.1-5.8 12.5-9.1 20.2-9 7.7 0 14.3 3.1 19.8 9.2s8.3 14.7 8.3 25.6c.1 5.5-.7 11-2.4 16.3-1.2 4.1-3.4 7.9-6.4 11-2.5 2.6-5.6 4.6-8.9 6-3.4 1.3-6.9 2-10.5 2zm0-7.5c5.6.1 10.9-2.5 14.2-7 3.6-4.7 5.5-11.6 5.5-20.7 0-8.8-1.9-15.6-5.6-20.2-3.3-4.4-8.5-7-14.1-7-5.6-.1-10.9 2.4-14.4 6.8-3.8 4.5-5.8 11.2-5.8 20 0 9.2 1.9 16.2 5.6 21 3.5 4.5 8.9 7.2 14.6 7.1z"/><path d="m316.7 833.7v-67.2h25.8c7 0 12.5 1.7 16.5 5s6 8.3 6 14.9c0 5.4-1.5 9.7-4.5 13-3.2 3.4-7.4 5.6-12 6.2l15 28h-8.9l-14.6-27.4h-15.3v27.5zm8-34.5h17.4c4.5 0 8.1-1 10.9-3s4.1-5.2 4.1-9.7c0-8.4-5.1-12.7-15.2-12.7h-17.2z"/><path d="m404.7 833.7v-59.9h-20.8v-7.3h49.4v7.3h-20.7v59.9z"/><path d="m456.9 833.7v-67.2h8v28.9h30v-28.9h7.9v67.2h-7.9v-31.2h-30v31.2z"/><path d="m562 833.7 24.2-67.2h7.8l24.2 67.2h-8.1l-5-13.2h-30.1l-4.9 13.2zm15.4-20.1h25.4l-12.7-36.5h-.2z"/><path d="m641.3 833.7v-67.2h11.2l21 51.5h.2l21-51.5h11.3v67.2h-7.8v-56.1h-.2l-23.1 56.1h-2.5l-23.1-56.1h-.2v56.1z"/><path d="m736.3 833.7v-67.2h40.4v7.3h-32.4v21.8h29.8v7.1h-29.8v23.7h32.4v7.3z"/><path d="m804.7 833.7v-67.2h25.8c7 0 12.5 1.7 16.5 5s6 8.3 6 14.9c0 5.4-1.5 9.7-4.5 13-3.2 3.4-7.4 5.6-12 6.2l15 28h-8.9l-14.6-27.4h-15.3v27.5zm8-34.5h17.3c4.5 0 8.1-1 10.8-3 2.8-2 4.1-5.2 4.1-9.7 0-8.4-5.1-12.7-15.2-12.7h-17.2z"/><path d="m879 833.7v-67.2h8v67.2z"/><path d="m942.5 772.7c-5.6-.1-10.9 2.4-14.3 6.8-3.8 4.5-5.7 11.2-5.7 20.1 0 9.2 1.9 16.2 5.6 21 3.4 4.6 8.8 7.3 14.5 7.2 10.1 0 15.8-6.3 17.1-18.9l8.3 1c-.7 7.9-3.2 14.1-7.6 18.6s-10.3 6.8-17.9 6.8c-3.6 0-7.2-.6-10.6-2s-6.4-3.5-9-6.1c-3-3.2-5.2-7-6.5-11.1-1.7-5.3-2.5-10.8-2.4-16.4 0-10.9 2.8-19.4 8.3-25.4 5.1-5.8 12.5-9.1 20.2-9 7 0 12.8 2.1 17.2 6.4s7.1 10 8.1 17l-8.1 1.4c-2-11.7-7.7-17.4-17.2-17.4z"/><path d="m984.8 833.7 24.2-67.2h7.8l24.2 67.2h-8.1l-5-13.2h-30.1l-4.9 13.2zm15.4-20.1h25.4l-12.7-36.5h-.2z"/><path d="m1064.1 833.7v-11.3h11.3v11.3z"/><path d="m1133.2 833.7v-67.2h8v28.9h30v-28.9h7.9v67.2h-7.9v-31.2h-30v31.2z"/><path d="m1234.1 835.2c-3.6 0-7.2-.6-10.6-2s-6.4-3.5-9-6.1c-3-3.2-5.2-7-6.5-11.2-1.7-5.3-2.5-10.8-2.4-16.4 0-10.9 2.8-19.4 8.3-25.4 5.1-5.8 12.5-9.1 20.2-9 7.7 0 14.3 3.1 19.8 9.2s8.3 14.7 8.3 25.6c.1 5.5-.7 11-2.4 16.3-1.2 4.1-3.4 7.9-6.4 11-2.5 2.6-5.6 4.6-8.9 6-3.3 1.3-6.8 2-10.4 2zm0-7.5c5.6.1 10.9-2.5 14.2-7 3.6-4.7 5.5-11.6 5.5-20.7 0-8.8-1.9-15.6-5.6-20.2-3.3-4.4-8.5-7-14.1-7-5.6-.1-10.9 2.4-14.3 6.8-3.8 4.5-5.7 11.2-5.7 20.1 0 9.2 1.9 16.2 5.6 21 3.3 4.4 8.7 7.1 14.4 7z"/><path d="m1288.7 833.7v-67.2h11.3l21 51.5h.2l21-51.5h11.2v67.2h-7.8v-56.1h-.2l-23.1 56.1h-2.5l-23.1-56.1h-.2v56.1z"/><path d="m1383.8 833.7v-67.2h40.4v7.3h-32.4v21.8h29.8v7.1h-29.8v23.7h32.4v7.3z"/><path d="m1502.3 833.7v-59.9h-20.8v-7.3h49.4v7.3h-20.7v59.9z"/><path d="m1578.3 835.2c-3.6 0-7.2-.6-10.6-2s-6.4-3.5-9-6.1c-3-3.2-5.2-7-6.5-11.1-1.7-5.3-2.5-10.8-2.4-16.4 0-10.9 2.8-19.4 8.4-25.4 5.1-5.8 12.5-9.1 20.2-9 7.7 0 14.3 3.1 19.8 9.2s8.3 14.7 8.3 25.6c.1 5.5-.7 11-2.3 16.3-1.2 4.1-3.4 7.9-6.4 11-2.6 2.6-5.6 4.6-8.9 6-3.5 1.2-7.1 1.9-10.6 1.9zm0-7.5c5.6.1 10.9-2.5 14.2-7 3.6-4.7 5.5-11.6 5.5-20.7 0-8.8-1.9-15.6-5.6-20.2-3.3-4.4-8.5-7-14.1-7-5.6-.1-10.9 2.4-14.4 6.8-3.8 4.5-5.7 11.2-5.7 20.1 0 9.2 1.9 16.2 5.6 21 3.3 4.4 8.8 7.1 14.5 7z"/><path d="m4.6 1025v-6c0-6.2 1.2-11 3.5-14.4 2.1-3.3 7.1-7.1 15-11.2l5.4-3c.9-.5 2.3-1.3 4.1-2.5 1.3-.8 2.5-1.7 3.7-2.7.6-.6 1.3-1.5 2.2-2.6.8-1 1.4-2.1 1.7-3.3s.4-2.5.4-3.8c.1-3.1-1.2-6.2-3.4-8.4-2.3-2.3-5.7-3.5-10.2-3.5-4.4 0-7.9 1.4-10.6 4.1s-4.1 6.5-4.4 11.5l-7.7-.8c.3-6.9 2.5-12.3 6.7-16.2s9.6-5.8 16.1-5.8c6.7 0 11.9 1.9 15.6 5.6s5.7 8.7 5.6 13.9c.1 2.6-.4 5.2-1.2 7.7-1 2.4-2.5 4.5-4.5 6.1-1.6 1.4-3.2 2.7-5 3.9-1.2.7-3.4 2-6.6 3.7l-1.4.8c-.7.4-1.7.9-3.1 1.7-1.4.7-2.3 1.2-2.8 1.5l-2.2 1.3c-.7.4-1.4.9-2.1 1.3-.4.3-.9.7-1.6 1.2-.6.4-1.1.9-1.5 1.4s-.7.9-1.1 1.4c-1.3 2-1.9 5-1.9 8.9h35.3v8h-44z"/><path d="m67.1 1007.8 7.6-2.7c2.6 9.3 8 14 16.4 14 4.8 0 8.6-1.5 11.4-4.5s4.2-7.1 4.2-12.2c0-4.9-1.4-8.8-4.2-11.6s-6.5-4.2-11.1-4.2c-6.1-.2-11.8 2.8-15 8.1l-7.1-3.1 6-33.8h33.1v7.3h-27l-3.8 21.2.1.1c1.6-2 3.7-3.5 6-4.5 2.9-1.3 6.1-1.9 9.4-1.9 5.7-.1 11.2 2.1 15.2 6.2 4.2 4.1 6.2 9.5 6.2 16.3 0 7.2-2.2 13-6.6 17.4-4.4 4.3-10 6.5-16.8 6.5-6.2 0-11.4-1.7-15.5-5.1-4.1-3.5-7.1-8.2-8.5-13.5z"/><path d="m134.8 1035.2v-4.3c3.1-.6 4.6-2.5 4.6-5.9h-4.6v-11.3h11.3v9.9c.1 7.2-3.7 11-11.3 11.6z"/><path d="m192.9 1026.4c-7.9 0-14-3.1-18.4-9.3s-6.6-15.1-6.6-26.6c0-11 2.3-19.5 6.9-25.3 7.8-10 22.3-11.8 32.3-4 1.5 1.2 2.8 2.5 4 4 4.6 5.9 6.9 14.3 6.9 25.3 0 11.5-2.2 20.4-6.6 26.6s-10.7 9.3-18.5 9.3zm-12.6-14.8c2.9 5 7.1 7.5 12.6 7.5s9.7-2.5 12.6-7.5 4.3-12.1 4.3-21.2c0-8.6-1.5-15.2-4.4-19.8-4.3-6.9-13.3-9.1-20.2-4.8-1.9 1.2-3.6 2.8-4.8 4.8-2.9 4.6-4.4 11.2-4.4 19.9 0 9 1.4 16 4.3 21.1z"/><path d="m260.3 1026.4c-7.9 0-14-3.1-18.4-9.3s-6.6-15.1-6.6-26.6c0-11 2.3-19.5 6.9-25.3 7.8-10 22.3-11.8 32.3-4 1.5 1.2 2.8 2.5 4 4 4.6 5.9 6.9 14.3 6.9 25.3 0 11.5-2.2 20.4-6.6 26.6s-10.7 9.3-18.5 9.3zm-12.6-14.8c2.9 5 7.1 7.5 12.6 7.5s9.7-2.5 12.6-7.5 4.3-12.1 4.3-21.2c0-8.6-1.5-15.2-4.4-19.8-4.3-6.9-13.3-9.1-20.2-4.8-1.9 1.2-3.6 2.8-4.8 4.8-2.9 4.6-4.4 11.2-4.4 19.9 0 9 1.4 16 4.3 21.1z"/><path d="m327.7 1026.4c-7.9 0-14-3.1-18.4-9.3s-6.6-15.1-6.6-26.6c0-11 2.3-19.5 6.9-25.3 7.8-10 22.3-11.8 32.3-4 1.5 1.2 2.8 2.5 4 4 4.6 5.9 6.9 14.3 6.9 25.3 0 11.5-2.2 20.4-6.6 26.6s-10.7 9.3-18.5 9.3zm-12.6-14.8c2.9 5 7.1 7.5 12.6 7.5s9.7-2.5 12.6-7.5 4.3-12.1 4.3-21.2c0-8.6-1.5-15.2-4.4-19.8-4.3-6.9-13.3-9.1-20.2-4.8-1.9 1.2-3.6 2.8-4.8 4.8-2.9 4.6-4.4 11.2-4.4 19.9 0 9 1.4 16 4.3 21.1z"/><path d="m406.1 1025v-67.2h25.8c6.8 0 12.2 1.8 16.3 5.4s6.1 8.7 6.1 15.3c0 6.5-2 11.6-6 15.2s-9.4 5.4-16.2 5.4h-18.1v25.9zm8-33.2h17.6c3.8.1 7.5-1 10.5-3.4 2.8-2.2 4.2-5.5 4.2-9.9 0-4.5-1.4-7.9-4.2-10.1-3.1-2.3-6.8-3.5-10.6-3.3h-17.4z"/><path d="m473.2 1025v-67.2h40.4v7.3h-32.5v21.8h29.8v7.1h-29.8v23.7h32.5v7.3z"/><path d="m561.9 1026.4c-3.6 0-7.2-.6-10.6-2s-6.4-3.5-9-6.1c-3-3.2-5.2-7-6.5-11.1-1.7-5.3-2.5-10.8-2.4-16.4 0-10.9 2.8-19.4 8.3-25.4 5.1-5.8 12.5-9.1 20.2-9 7.7 0 14.3 3.1 19.8 9.2s8.3 14.7 8.3 25.6c.1 5.5-.7 11-2.3 16.3-1.2 4.1-3.4 7.9-6.4 11-2.5 2.6-5.6 4.6-8.9 6-3.3 1.3-6.9 2-10.5 1.9zm0-7.5c5.6.1 10.9-2.5 14.2-7 3.7-4.7 5.5-11.6 5.5-20.7 0-8.8-1.9-15.6-5.6-20.3-3.3-4.4-8.5-7-14.1-7-5.6-.1-10.9 2.4-14.3 6.8-3.8 4.5-5.7 11.2-5.7 20.1 0 9.2 1.9 16.2 5.6 21 3.3 4.6 8.7 7.2 14.4 7.1z"/><path d="m612.2 1025v-67.2h25.8c6.8 0 12.2 1.8 16.3 5.4s6.1 8.7 6.1 15.3c0 6.5-2 11.6-6 15.2s-9.4 5.4-16.2 5.4h-18v25.9zm8-33.2h17.6c3.8.1 7.5-1 10.5-3.4 2.8-2.2 4.2-5.5 4.2-9.9 0-4.5-1.4-7.9-4.2-10.1-3.1-2.3-6.8-3.5-10.7-3.3h-17.4z"/><path d="m679.3 1025v-67.2h8v59.9h29.2v7.3z"/><path d="m736.2 1025v-67.2h40.4v7.3h-32.5v21.8h29.9v7.1h-29.8v23.7h32.5v7.3z"/><path d="m839.7 1025-12.4-67.2h8.2l10.1 55.5h.2l16.7-55.5h8.3l16.8 55.5h.2l9.9-55.5h8.2l-12.4 67.2h-9.8l-17-55.7h-.2l-16.9 55.7z"/><path d="m927 1025v-67.2h8v28.9h30v-28.9h7.9v67.2h-7.9v-31.2h-30v31.2z"/><path d="m1023.6 1026.4c-3.6 0-7.2-.6-10.6-2s-6.4-3.5-9-6.1c-3-3.2-5.2-7-6.5-11.1-1.7-5.3-2.5-10.8-2.4-16.4 0-10.9 2.8-19.4 8.3-25.4 5.1-5.8 12.5-9.1 20.2-9 7.7 0 14.3 3.1 19.8 9.2s8.3 14.7 8.3 25.6c.1 5.5-.7 11-2.3 16.3-1.2 4.1-3.4 7.9-6.4 11-2.5 2.6-5.6 4.6-8.9 6-3.4 1.3-6.9 2-10.5 1.9zm0-7.5c5.6.1 10.9-2.5 14.2-7 3.7-4.7 5.5-11.6 5.5-20.7 0-8.8-1.9-15.6-5.6-20.3-3.3-4.4-8.5-7-14.1-7-5.6-.1-10.9 2.4-14.3 6.8-3.8 4.5-5.7 11.2-5.7 20.1 0 9.2 1.9 16.2 5.6 21 3.3 4.6 8.7 7.2 14.4 7.1z"/><path d="m1130.3 963.9c-5.6-.1-10.9 2.4-14.3 6.8-3.8 4.5-5.7 11.2-5.7 20.1 0 9.2 1.9 16.2 5.6 21 3.4 4.6 8.8 7.3 14.5 7.2 10.1 0 15.8-6.3 17.1-18.9l8.3 1.1c-.7 7.9-3.2 14.1-7.6 18.6s-10.3 6.8-17.9 6.8c-3.6 0-7.2-.6-10.6-2s-6.4-3.5-9-6.1c-3-3.2-5.2-7-6.5-11.1-1.7-5.3-2.5-10.8-2.4-16.4 0-10.9 2.8-19.4 8.3-25.4 5.1-5.8 12.5-9.1 20.2-9 7 0 12.8 2.1 17.2 6.4s7.1 10 8.1 17l-8.1 1.4c-1.9-11.7-7.6-17.5-17.2-17.5z"/><path d="m1202.1 1026.4c-3.6 0-7.2-.6-10.6-2s-6.4-3.5-9-6.1c-3-3.2-5.2-7-6.5-11.1-1.7-5.3-2.5-10.8-2.4-16.4 0-10.9 2.8-19.4 8.3-25.4 5.1-5.8 12.5-9.1 20.2-9 7.7 0 14.3 3.1 19.8 9.2s8.3 14.7 8.3 25.6c.1 5.5-.7 11-2.3 16.3-1.2 4.1-3.4 7.9-6.4 11-2.5 2.6-5.6 4.6-8.9 6-3.3 1.3-6.9 2-10.5 1.9zm0-7.5c5.6.1 10.9-2.5 14.2-7 3.7-4.7 5.5-11.6 5.5-20.7 0-8.8-1.9-15.6-5.6-20.3-3.3-4.4-8.5-7-14.1-7-5.6-.1-10.9 2.4-14.3 6.8-3.8 4.5-5.7 11.2-5.7 20.1 0 9.2 1.9 16.2 5.6 21 3.3 4.6 8.7 7.2 14.4 7.1z"/><path d="m1252.4 1025v-67.2h11.2l21 51.5h.2l21-51.5h11.2v67.2h-7.8v-56.1h-.2l-23 56.1h-2.5l-23.1-56.1h-.2v56.1z"/><path d="m1343.2 1025v-67.2h11.2l21 51.5h.2l21-51.5h11.2v67.2h-7.8v-56.1h-.2l-23.1 56.1h-2.5l-23.1-56.1h-.2v56.1z"/><path d="m1432.4 1003.1v-45.3h8v44.7c0 10.9 5.3 16.4 15.8 16.4 5.3 0 9.3-1.4 12-4.2s4.1-6.8 4.1-12v-45h7.9v45.3c0 7.7-2.1 13.5-6.3 17.4s-10.1 5.9-17.6 5.9-13.4-2-17.6-5.9c-4.1-3.8-6.2-9.6-6.3-17.3z"/><path d="m1518.8 1025v-59.9h-20.8v-7.3h49.4v7.3h-20.7v59.9z"/><path d="m1566.8 1025v-67.2h40.4v7.3h-32.4v21.8h29.8v7.1h-29.8v23.7h32.4v7.3z"/><path d="m20.8 1216.2v-59.9h-20.8v-7.3h49.4v7.3h-20.7v59.9z"/><path d="m93.5 1217.7c-3.6 0-7.2-.6-10.6-2s-6.4-3.5-9-6.1c-3-3.2-5.2-7-6.5-11.1-1.7-5.3-2.5-10.8-2.4-16.4 0-10.9 2.8-19.4 8.3-25.4 5.1-5.8 12.5-9.1 20.2-9 7.7 0 14.3 3.1 19.8 9.2s8.3 14.7 8.3 25.6c.1 5.5-.7 11-2.3 16.3-1.2 4.1-3.4 7.9-6.4 11-2.5 2.6-5.6 4.6-8.9 6-3.3 1.3-6.9 1.9-10.5 1.9zm0-7.5c5.6.1 10.9-2.5 14.2-7 3.7-4.7 5.5-11.6 5.5-20.7 0-8.8-1.9-15.6-5.6-20.3s-8.4-7-14.1-7c-5.6-.1-10.9 2.4-14.3 6.8-3.8 4.5-5.7 11.2-5.7 20.1 0 9.2 1.9 16.2 5.6 21 3.3 4.6 8.7 7.2 14.4 7.1z"/><path d="m191.8 1216.2v-59.9h-20.8v-7.3h49.4v7.3h-20.8v59.9z"/><path d="m264.5 1217.7c-3.6 0-7.2-.6-10.6-2s-6.4-3.5-9-6.1c-3-3.2-5.2-7-6.5-11.1-1.7-5.3-2.5-10.8-2.4-16.4 0-10.9 2.8-19.4 8.4-25.4 5.1-5.8 12.5-9.1 20.2-9 7.7 0 14.3 3.1 19.8 9.2s8.3 14.7 8.3 25.6c.1 5.5-.7 11-2.4 16.3-1.2 4.1-3.4 7.9-6.4 11-2.5 2.6-5.6 4.6-8.9 6-3.4 1.3-6.9 1.9-10.5 1.9zm0-7.5c5.6.1 10.9-2.5 14.2-7 3.6-4.7 5.5-11.6 5.5-20.7 0-8.8-1.9-15.6-5.6-20.3-3.3-4.4-8.5-7-14.1-7-5.6-.1-10.9 2.4-14.4 6.8-3.8 4.5-5.7 11.2-5.7 20.1 0 9.2 1.9 16.2 5.6 21 3.4 4.6 8.8 7.2 14.5 7.1z"/><path d="m315.8 1216.2v-67.2h25.8c7 0 12.5 1.7 16.5 5s6 8.3 6 14.9c0 5.4-1.5 9.7-4.5 13-3.2 3.4-7.4 5.6-12 6.2l15 28h-8.9l-14.6-27.5h-15.3v27.5zm8-34.5h17.4c4.5 0 8.1-1 10.9-3s4.1-5.2 4.1-9.7c0-8.4-5.1-12.7-15.2-12.7h-17.2z"/><path d="m411.1 1217.7c-3.6 0-7.2-.6-10.6-2s-6.4-3.5-9-6.1c-3-3.2-5.2-7-6.5-11.1-1.7-5.3-2.5-10.8-2.4-16.4 0-10.9 2.8-19.4 8.4-25.4 5.1-5.8 12.5-9.1 20.2-9 7.7 0 14.3 3.1 19.8 9.2s8.3 14.7 8.3 25.6c.1 5.5-.7 11-2.4 16.3-1.2 4.1-3.4 7.9-6.4 11-2.5 2.6-5.6 4.6-8.9 6-3.4 1.3-6.9 1.9-10.5 1.9zm0-7.5c5.6.1 10.9-2.5 14.2-7 3.7-4.7 5.5-11.6 5.5-20.7 0-8.8-1.9-15.6-5.6-20.3-3.3-4.4-8.5-7-14.1-7-5.6-.1-10.9 2.4-14.4 6.8-3.8 4.5-5.7 11.2-5.7 20.1 0 9.2 1.9 16.2 5.6 21 3.4 4.6 8.8 7.2 14.5 7.1z"/><path d="m462.4 1216.2v-67.2h8.6l30.6 54h.2v-54h7.9v67.2h-8.4l-30.8-54h-.2v54z"/><path d="m550.9 1216.2v-59.9h-20.8v-7.3h49.4v7.3h-20.7v59.9z"/><path d="m623.6 1217.7c-3.6 0-7.2-.6-10.6-2s-6.4-3.5-9-6.1c-3-3.2-5.2-7-6.5-11.1-1.7-5.3-2.5-10.8-2.4-16.4 0-10.9 2.8-19.4 8.3-25.4 5.1-5.8 12.5-9.1 20.2-9 7.7 0 14.3 3.1 19.8 9.2s8.3 14.7 8.3 25.6c.1 5.5-.7 11-2.3 16.3-1.2 4.1-3.4 7.9-6.4 11-2.5 2.6-5.6 4.6-8.9 6-3.3 1.3-6.9 1.9-10.5 1.9zm0-7.5c5.6.1 10.9-2.5 14.2-7 3.7-4.7 5.5-11.6 5.5-20.7 0-8.8-1.9-15.6-5.6-20.3s-8.4-7-14.1-7c-5.6-.1-10.9 2.4-14.3 6.8-3.8 4.5-5.7 11.2-5.7 20.1 0 9.2 1.9 16.2 5.6 21 3.3 4.6 8.7 7.2 14.4 7.1z"/><path d="m707.8 1216.2v-67.2h21c3.7 0 7.4.6 10.8 2s6.6 3.4 9.2 6c3 3 5.2 6.6 6.6 10.5 1.7 4.8 2.5 9.9 2.5 15 .1 5.4-.7 10.9-2.5 16-1.3 4-3.7 7.7-6.8 10.5-2.7 2.4-5.9 4.2-9.4 5.4s-7.3 1.8-11 1.7zm8-7.3h11.8c14.6 0 21.9-8.8 21.9-26.4 0-8.4-1.9-14.9-5.7-19.4s-9-6.8-15.6-6.8h-12.4z"/><path d="m771.5 1216.2 24.2-67.2h7.8l24.2 67.2h-8.1l-5-13.2h-30.1l-4.9 13.2zm15.4-20h25.4l-12.7-36.5h-.2z"/><path d="m848.1 1216.2v-67.2h8v67.2z"/><path d="m883.6 1216.2v-67.2h8v59.9h29.2v7.3z"/><path d="m946.5 1216.2v-28.3l-22.2-38.9h8.8l17.1 31.2h.2l17.1-31.2h8.8l-22.2 38.9v28.3z"/><path d="m982.3 1216.2v-11.3h11.3v11.3z"/><path d="m1044.9 1216.2v-67.2h8v28.9h30v-28.9h7.9v67.2h-7.9v-31.2h-30v31.2z"/><path d="m1142.5 1217.7c-3.6 0-7.2-.6-10.6-2s-6.4-3.5-9-6.1c-3-3.2-5.2-7-6.5-11.1-1.7-5.3-2.5-10.8-2.4-16.4 0-10.9 2.8-19.4 8.3-25.4 5.1-5.8 12.5-9.1 20.2-9 7.7 0 14.3 3.1 19.8 9.2s8.3 14.7 8.3 25.6c.1 5.5-.7 11-2.3 16.3-1.2 4.1-3.4 7.9-6.4 11-2.5 2.6-5.6 4.6-8.9 6-3.4 1.3-6.9 1.9-10.5 1.9zm0-7.5c5.6.1 10.9-2.5 14.2-7 3.6-4.7 5.5-11.6 5.5-20.7 0-8.8-1.9-15.6-5.6-20.3s-8.4-7-14.1-7c-5.6-.1-10.9 2.4-14.3 6.8-3.8 4.5-5.7 11.2-5.7 20.1 0 9.2 1.9 16.2 5.6 21 3.3 4.6 8.7 7.2 14.4 7.1z"/><path d="m1193.8 1216.2v-67.2h11.2l21 51.6h.2l21-51.6h11.2v67.2h-7.8v-56.1h-.2l-23.1 56.1h-2.4l-23.1-56.1h-.2v56.1z"/><path d="m1285.6 1216.2v-67.2h40.4v7.3h-32.4v21.8h29.8v7.1h-29.8v23.7h32.4v7.3z"/><path d="m1397.7 1216.2v-59.9h-20.8v-7.3h49.4v7.3h-20.7v59.9z"/><path d="m1470.3 1217.7c-3.6 0-7.2-.6-10.6-2s-6.4-3.5-9-6.1c-3-3.2-5.2-7-6.5-11.1-1.7-5.3-2.5-10.8-2.4-16.4 0-10.9 2.8-19.4 8.3-25.4 5.1-5.8 12.5-9.1 20.2-9 7.7 0 14.3 3.1 19.8 9.2s8.3 14.7 8.3 25.6c.1 5.5-.7 11-2.4 16.3-1.2 4.1-3.4 7.9-6.4 11-2.5 2.6-5.6 4.6-8.9 6-3.2 1.3-6.8 1.9-10.4 1.9zm0-7.5c5.6.1 10.9-2.5 14.2-7 3.7-4.7 5.5-11.6 5.5-20.7 0-8.8-1.9-15.6-5.6-20.3-3.3-4.4-8.5-7-14.1-7-5.6-.1-10.9 2.4-14.3 6.8-3.8 4.5-5.7 11.2-5.7 20.1 0 9.2 1.9 16.2 5.6 21 3.3 4.6 8.7 7.2 14.4 7.1z"/><path d="m1547.3 1216.2 24.2-67.2h7.8l24.2 67.2h-8.1l-5-13.2h-30.1l-4.9 13.2zm15.4-20h25.4l-12.7-36.5h-.2z"/><path d="m6.8 1407.5v-67.2h8v28.9h30v-28.9h7.9v67.2h-7.9v-31.2h-30v31.2z"/><path d="m93.2 1409c-3.6 0-7.2-.6-10.6-2s-6.4-3.5-9-6.1c-3-3.2-5.3-7-6.6-11.2-1.7-5.3-2.5-10.8-2.4-16.4 0-10.9 2.8-19.4 8.4-25.4 5.1-5.8 12.5-9.1 20.2-9 7.7 0 14.3 3.1 19.8 9.2s8.3 14.7 8.3 25.6c.1 5.5-.7 11-2.3 16.3-1.2 4.1-3.4 7.9-6.4 11-2.5 2.6-5.6 4.6-8.9 6-3.4 1.4-7 2-10.5 2zm0-7.5c5.6.1 10.9-2.5 14.2-7 3.7-4.7 5.5-11.6 5.5-20.7 0-8.8-1.9-15.6-5.6-20.2-3.3-4.4-8.5-7-14.1-7-5.6-.1-10.9 2.4-14.4 6.8-3.8 4.5-5.7 11.2-5.7 20.1 0 9.2 1.9 16.2 5.6 21 3.4 4.5 8.8 7.1 14.5 7z"/><path d="m133.3 1407.5v-67.2h11.2l21 51.6h.2l21-51.6h11.3v67.2h-7.8v-56.1h-.2l-23.1 56.1h-2.5l-23.1-56.1h-.3v56.1z"/><path d="m213.8 1407.5v-67.2h40.4v7.3h-32.5v21.8h29.8v7.1h-29.8v23.7h32.4v7.3z"/><path d="m281.8 1407.5v-59.9h-20.8v-7.3h49.4v7.3h-20.7v59.9z"/><path d="m343.2 1409c-3.6 0-7.2-.6-10.6-2s-6.4-3.5-9-6.1c-3-3.2-5.2-7-6.5-11.1-1.7-5.3-2.5-10.8-2.4-16.4 0-10.9 2.8-19.4 8.4-25.4 5.1-5.8 12.5-9.1 20.2-9 7.7 0 14.3 3.1 19.8 9.2s8.3 14.7 8.3 25.6c.1 5.5-.7 11-2.4 16.2-1.2 4.1-3.4 7.9-6.4 11-2.5 2.6-5.6 4.6-8.9 6-3.3 1.3-6.9 2-10.5 2zm0-7.5c5.6.1 10.9-2.5 14.2-7 3.6-4.7 5.5-11.6 5.5-20.7 0-8.8-1.9-15.6-5.6-20.2s-8.4-7-14.1-7c-5.6-.1-10.9 2.4-14.4 6.8-3.8 4.5-5.7 11.2-5.7 20.1 0 9.2 1.9 16.2 5.6 21 3.4 4.5 8.8 7.1 14.5 7z"/><path d="m389 1407.5-12.4-67.2h8.2l10.1 55.5h.2l16.7-55.5h8.4l16.8 55.5h.2l9.9-55.5h8.2l-12.4 67.2h-9.9l-17-55.7h-.2l-16.9 55.7z"/><path d="m466.2 1407.5v-67.2h8.6l30.6 54h.2v-54h7.9v67.2h-8.4l-30.8-54h-.2v54z"/><path d="m551 1407.5v-67.2h40.5v7.3h-32.5v24.3h29.8v7h-29.8v28.6z"/><path d="m603 1407.5v-67.2h40.4v7.3h-32.4v21.8h29.8v7.1h-29.8v23.7h32.4v7.3z"/><path d="m656.9 1407.5v-67.2h40.4v7.3h-32.4v21.8h29.8v7.1h-29.8v23.7h32.5v7.3z"/><path d="m710.7 1407.5v-67.2h8v59.9h29.2v7.3z"/><path d="m758 1407.5v-67.2h8v67.2z"/><path d="m782.2 1407.5v-67.2h8.6l30.6 54h.2v-54h7.9v67.2h-8.4l-30.8-54h-.2v54z"/><path d="m870 1409c-3.7 0-7.3-.6-10.7-2s-6.5-3.5-9-6.1c-3-3.2-5.2-7-6.4-11.2-1.6-5.3-2.4-10.8-2.3-16.4 0-10.9 2.8-19.3 8.3-25.3 5.1-5.8 12.4-9.1 20.1-9 6.1-.2 12.1 2 16.7 6.1 4.6 4.2 7.6 9.8 8.4 16l-8 1.4c-2.2-10.7-8-16-17.2-16-5.6-.1-10.9 2.4-14.3 6.8-3.8 4.5-5.7 11.2-5.7 20 0 9.2 1.9 16.2 5.6 21 3.3 4.6 8.7 7.3 14.5 7.2 5.6 0 9.9-1.7 13.2-5.2 3.2-3.5 4.7-8.3 4.6-14.4h-16.9v-7.3h24.9v6.5c0 8.7-2.4 15.5-7.1 20.4-4.8 5.2-11 7.6-18.7 7.5z"/><path d="m902.9 1407.5v-11.3h11.3v11.3z"/><path d="m943 1407.5v-67.2h8v28.9h30v-28.9h7.9v67.2h-7.9v-31.2h-30v31.2z"/><path d="m1029.4 1409c-3.6 0-7.2-.6-10.6-2s-6.4-3.5-9-6.1c-3-3.2-5.2-7-6.5-11.1-1.7-5.3-2.5-10.8-2.4-16.4 0-10.9 2.8-19.4 8.3-25.4 5.1-5.8 12.5-9.1 20.2-9 7.7 0 14.3 3.1 19.8 9.2s8.3 14.7 8.3 25.6c.1 5.5-.7 11-2.3 16.3-1.2 4.1-3.4 7.9-6.4 11-2.5 2.6-5.6 4.6-8.9 6-3.3 1.3-6.9 2-10.5 1.9zm0-7.5c5.6.1 10.9-2.5 14.2-7 3.6-4.7 5.5-11.6 5.5-20.7 0-8.8-1.9-15.6-5.6-20.2-3.3-4.4-8.5-7-14.1-7-5.6-.1-10.9 2.4-14.3 6.8-3.8 4.5-5.7 11.2-5.7 20.1 0 9.2 1.9 16.2 5.6 21 3.3 4.5 8.7 7.1 14.4 7z"/><path d="m1069.6 1407.5v-67.2h11.2l21 51.6h.2l21-51.6h11.2v67.2h-7.8v-56.1h-.2l-23.1 56.1h-2.5l-23.1-56.1h-.2v56.1z"/><path d="m1150.1 1407.5v-67.2h40.4v7.3h-32.4v21.8h29.8v7.1h-29.8v23.7h32.4v7.3z"/><path d="m1239.7 1407.5v-59.9h-20.8v-7.3h49.4v7.3h-20.7v59.9z"/><path d="m1301.1 1409c-3.6 0-7.2-.6-10.6-2s-6.4-3.5-9-6.1c-3-3.2-5.2-7-6.5-11.1-1.7-5.3-2.5-10.8-2.4-16.4 0-10.9 2.8-19.4 8.3-25.4 5.1-5.8 12.5-9.1 20.2-9 7.7 0 14.3 3.1 19.8 9.2s8.3 14.7 8.3 25.6c.1 5.5-.7 11-2.3 16.3-1.2 4.1-3.4 7.9-6.4 11-2.5 2.6-5.6 4.6-8.9 6-3.3 1.3-6.9 2-10.5 1.9zm0-7.5c5.6.1 10.9-2.5 14.2-7 3.7-4.7 5.5-11.6 5.5-20.7 0-8.8-1.9-15.6-5.6-20.2-3.3-4.4-8.5-7-14.1-7-5.6-.1-10.9 2.4-14.3 6.8-3.8 4.5-5.7 11.2-5.7 20.1 0 9.2 1.9 16.2 5.6 21 3.3 4.5 8.7 7.1 14.4 7z"/><path d="m1362.8 1407.5v-67.2h11.2l21 51.6h.2l21-51.6h11.2v67.2h-7.8v-56.1h-.2l-23.1 56.1h-2.4l-23.1-56.1h-.2v56.1z"/><path d="m1468.1 1409c-3.6 0-7.2-.6-10.6-2s-6.4-3.5-9-6.1c-3-3.2-5.2-7-6.5-11.1-1.7-5.3-2.5-10.8-2.4-16.4 0-10.9 2.8-19.4 8.3-25.4 5.1-5.8 12.5-9.1 20.2-9 7.7 0 14.3 3.1 19.8 9.2s8.3 14.7 8.3 25.6c.1 5.5-.7 11-2.3 16.3-1.2 4.1-3.4 7.9-6.4 11-2.5 2.6-5.6 4.6-8.9 6-3.4 1.3-7 2-10.5 1.9zm0-7.5c5.6.1 10.9-2.5 14.2-7 3.7-4.7 5.5-11.6 5.5-20.7 0-8.8-1.9-15.6-5.6-20.2s-8.4-7-14.1-7c-5.6-.1-10.9 2.4-14.3 6.8-3.8 4.5-5.7 11.2-5.7 20.1 0 9.2 1.9 16.2 5.6 21 3.3 4.5 8.7 7.1 14.4 7z"/><path d="m1508.2 1407.5v-67.2h25.8c7 0 12.5 1.7 16.5 5s6 8.3 6 14.9c0 5.4-1.5 9.7-4.5 13-3.2 3.4-7.4 5.6-12 6.2l15 28h-9l-14.6-27.5h-15.3v27.5zm8-34.6h17.4c4.5 0 8.1-1 10.8-3 2.8-2 4.1-5.2 4.1-9.7 0-8.4-5.1-12.7-15.2-12.7h-17.2z"/><path d="m1567.5 1407.5v-67.2h40.4v7.3h-32.4v21.8h29.8v7.1h-29.8v23.7h32.4v7.3z"/><path d="m6.8 1598.8v-67.2h8v28.9h30v-28.9h7.9v67.2h-7.9v-31.2h-30v31.2z"/><path d="m98.8 1600.2c-3.6 0-7.2-.6-10.6-2s-6.4-3.5-9-6.1c-3-3.2-5.2-7-6.5-11.1-1.7-5.3-2.5-10.8-2.4-16.4 0-10.9 2.8-19.4 8.4-25.4 5.1-5.8 12.4-9.1 20.2-9 7.7 0 14.3 3.1 19.8 9.2s8.3 14.7 8.3 25.6c.1 5.5-.7 11-2.3 16.3-1.2 4.1-3.4 7.9-6.4 11-2.5 2.6-5.6 4.6-8.9 6-3.4 1.3-7 2-10.6 1.9zm0-7.5c5.6.1 10.9-2.5 14.2-7 3.7-4.7 5.5-11.6 5.5-20.7 0-8.8-1.9-15.6-5.6-20.3-3.3-4.4-8.5-7-14.1-7-5.6-.1-10.9 2.4-14.4 6.8-3.8 4.6-5.7 11.2-5.7 20.1 0 9.2 1.9 16.2 5.6 21 3.4 4.6 8.8 7.3 14.5 7.1z"/><path d="m144.6 1598.8v-67.2h11.2l21 51.6h.2l21-51.6h11.2v67.2h-7.8v-56.1h-.2l-23.1 56.1h-2.5l-23.1-56.1h-.2v56.1z"/><path d="m230.9 1598.8v-67.2h40.4v7.3h-32.5v21.8h29.8v7.1h-29.8v23.7h32.5v7.3z"/><path d="m290.4 1598.8v-11.3h11.3v11.3z"/><path d="m378.9 1572.1 13.4 3c-1.1 7.8-3.9 13.9-8.5 18.4s-10.6 6.7-18 6.7c-8.7 0-15.7-3-21.1-9s-8.1-15-8.1-27.1c0-10.6 2.9-19 8.6-25 5.2-5.8 12.7-9.1 20.5-9 6.5-.2 12.8 2.2 17.6 6.5s7.6 10.1 8.4 17.4l-12.9 2c-.4-3.6-1.8-7.1-4-10-2.1-2.6-5.1-3.9-9-3.9-4.4 0-8.2 1.9-11.2 5.8-3.1 3.8-4.6 9.2-4.6 16.2 0 8.2 1.5 14.3 4.5 18.2 2.6 3.7 6.8 5.9 11.4 5.9 7.4 0 11.8-5.4 13-16.1z"/><path d="m442.8 1598.2c-7 2.7-14.7 2.7-21.7 0-7.7-3-13.5-9.3-15.9-17.2-1.7-5.3-2.5-10.8-2.5-16.4-.1-5.1.8-10.2 2.5-15.1 1.4-4.1 3.6-7.8 6.6-10.9 2.7-2.7 5.8-4.9 9.3-6.3 6.9-2.9 14.7-2.9 21.6 0 7.5 3.2 13.4 9.5 15.9 17.2 1.7 4.8 2.5 9.9 2.5 15.1.1 5.6-.7 11.1-2.5 16.4-2.3 7.9-8.1 14.2-15.8 17.2zm-22.2-15.6c4.7 6.3 13.5 7.6 19.8 2.9 1.1-.8 2-1.8 2.9-2.8 3-3.7 4.4-9.8 4.4-18.1 0-7.3-1.5-12.9-4.6-16.7-3-3.8-6.8-5.8-11.1-5.8-4.5 0-8.6 2.1-11.2 5.8-3 3.8-4.5 9.4-4.5 16.7-.1 8.2 1.4 14.2 4.3 18z"/><path d="m475.9 1598.8v-67.2h13.4l19.5 43.6h.2l19.5-43.6h13.4v67.2h-12.7v-41.3h-.2l-19.1 41.3h-2.1l-19.1-41.3h-.2v41.3z"/><path d="m560.5 1598.8v-67.2h42.5v12h-29.5v15.1h26.9v11.5h-26.9v16.6h29.5v12z"/><path d="m646.5 1598.8v-67.2h13v27.1h23v-27.1h13v67.2h-13v-29.1h-23v29.1z"/><path d="m750.3 1598.2c-7 2.7-14.7 2.7-21.7 0-7.6-3-13.5-9.3-15.9-17.2-1.7-5.3-2.5-10.8-2.4-16.4-.1-5.1.8-10.2 2.4-15.1 1.4-4.1 3.6-7.8 6.6-10.9 2.7-2.7 5.8-4.9 9.3-6.3 6.9-2.9 14.7-2.9 21.6 0 3.5 1.5 6.7 3.6 9.3 6.3 3 3.1 5.2 6.8 6.6 10.9 1.7 4.8 2.5 9.9 2.4 15.1.1 5.6-.7 11.1-2.4 16.4-2.3 7.9-8.1 14.2-15.8 17.2zm-22.2-15.6c4.7 6.3 13.5 7.6 19.8 2.9 1.1-.8 2-1.8 2.8-2.8 2.9-3.7 4.4-9.8 4.4-18.1 0-7.3-1.5-12.9-4.6-16.7-3-3.8-6.8-5.8-11.2-5.8-4.5 0-8.6 2.1-11.2 5.8-3 3.8-4.5 9.4-4.5 16.7.1 8.2 1.6 14.2 4.5 18z"/><path d="m783.4 1598.8v-67.2h13.3l19.5 43.6h.2l19.5-43.6h13.4v67.2h-12.7v-41.3h-.2l-19.1 41.3h-2.1l-19.1-41.3h-.1v41.3z"/><path d="m868 1598.8v-67.2h42.5v12h-29.5v15.1h26.9v11.5h-26.9v16.6h29.6v12z"/><path d="m967 1598.8v-55.2h-19.7v-12h52.3v12h-19.7v55.2z"/><path d="m1046.7 1598.2c-7 2.7-14.7 2.7-21.7 0-7.7-3-13.5-9.4-15.9-17.2-1.7-5.3-2.6-10.8-2.5-16.4-.1-5.1.8-10.2 2.5-15.1 1.4-4.1 3.6-7.8 6.6-10.9 2.7-2.7 5.8-4.9 9.3-6.3 6.9-2.9 14.7-2.9 21.6 0 3.5 1.5 6.7 3.6 9.3 6.3 3 3.1 5.2 6.8 6.6 10.9 1.7 4.8 2.5 9.9 2.4 15.1.1 5.6-.7 11.1-2.4 16.4-2.2 7.8-8.1 14.2-15.8 17.2zm-22.1-15.6c4.7 6.3 13.5 7.6 19.8 2.9 1.1-.8 2-1.8 2.8-2.8 2.9-3.7 4.4-9.8 4.4-18.1 0-7.3-1.5-12.9-4.6-16.7-3-3.8-6.8-5.8-11.2-5.8-4.5 0-8.6 2.1-11.2 5.8-3 3.8-4.5 9.4-4.5 16.7.1 8.2 1.5 14.2 4.5 18z"/><path d="m1107.1 1598.8v-67.2h13v27.1h23v-27.1h13v67.2h-13v-29.1h-23v29.1z"/><path d="m1213.7 1598.8-3.8-11h-25.6l-3.8 11h-12.9l24.3-67.2h11l24.2 67.2zm-16.7-48-9.1 26.2h18.3l-9-26.2z"/><path d="m1238.4 1598.8v-67.2h13.3l19.5 43.6h.2l19.5-43.6h13.4v67.2h-12.7v-41.3h-.2l-19.1 41.3h-2.1l-19.1-41.3h-.2v41.3z"/><path d="m1323.5 1598.8v-67.2h13v67.2z"/><path d="m1355.6 1598.8v-67.2h13v55.2h27.7v12z"/><path d="m1412 1598.8v-55.2h-19.7v-12h52.3v12h-19.6v55.2z"/><path d="m1491.8 1598.2c-7 2.7-14.7 2.7-21.7 0-7.7-3-13.5-9.4-15.9-17.2-1.7-5.3-2.5-10.8-2.4-16.4-.1-5.1.8-10.2 2.4-15.1 2.6-7.8 8.4-14.1 15.9-17.2 6.9-2.9 14.7-2.9 21.6 0 3.5 1.5 6.7 3.6 9.3 6.3 3 3.1 5.2 6.8 6.6 10.9 1.7 4.8 2.5 9.9 2.4 15.1.1 5.6-.7 11.1-2.4 16.4-2.3 7.8-8.1 14.2-15.8 17.2zm-22.2-15.6c4.7 6.3 13.5 7.6 19.8 2.9 1.1-.8 2-1.8 2.9-2.8 2.9-3.7 4.4-9.8 4.4-18.1 0-7.3-1.5-12.9-4.6-16.7-3-3.8-6.8-5.8-11.2-5.8-4.5 0-8.6 2.1-11.2 5.8-3 3.8-4.5 9.4-4.5 16.7 0 8.2 1.5 14.2 4.4 18z"/><path d="m1524.9 1598.8v-67.2h13l24.6 44.1h.2v-44.1h13v67.2h-12.8l-24.9-44.1h-.2v44.1z"/><path d="m1594.3 1598.8v-13.6h14.3v13.6z"/></g></svg>