<?xml version="1.0" encoding="utf-8"?>
<!-- Generator: Adobe Illustrator 25.0.0, SVG Export Plug-In . SVG Version: 6.00 Build 0)  -->
<svg version="1.1" id="Layer_1" xmlns="http://www.w3.org/2000/svg" xmlns:xlink="http://www.w3.org/1999/xlink" x="0px" y="0px"
	 viewBox="0 0 1609.1 1708.3" style="enable-background:new 0 0 1609.1 1708.3;" xml:space="preserve">
<style type="text/css">
	.st0{fill:#EFEFEF;}
</style>
<g>
	<path class="st0" d="M5.6,68.6V1.4h13v27.1h23V1.4h13v67.2h-13V39.5h-23v29.1H5.6z"/>
	<path class="st0" d="M116.4,68.6l-3.8-11H87l-3.8,11h-13L94.5,1.4h11l24.2,67.2H116.4z M99.7,20.6l-9.1,26.2h18.3l-9-26.2H99.7z"/>
	<path class="st0" d="M145.4,68.6V1.4h13.3L178.2,45h0.2l19.5-43.6h13.4v67.2h-12.7V27.4h-0.2l-19.1,41.3h-2.1l-19.1-41.3H158v41.3
		L145.4,68.6L145.4,68.6z"/>
	<path class="st0" d="M234.7,68.6V1.4h13v67.2H234.7z"/>
	<path class="st0" d="M271,68.6V1.4h13v55.2h27.7v12L271,68.6z"/>
	<path class="st0" d="M331.6,68.6V13.4H312v-12h52.3v12h-19.7v55.2H331.6z"/>
	<path class="st0" d="M415.6,68.1c-7,2.7-14.7,2.7-21.7,0c-3.5-1.4-6.6-3.4-9.3-6.1c-3-3.1-5.3-7-6.6-11.1
		c-1.7-5.3-2.5-10.8-2.4-16.4c-0.1-5.1,0.8-10.2,2.4-15.1c1.4-4.1,3.6-7.8,6.6-10.9c2.7-2.7,5.8-4.9,9.3-6.3
		c6.9-2.9,14.7-2.9,21.6,0c3.5,1.5,6.7,3.6,9.3,6.3c3,3.1,5.2,6.8,6.6,10.9c1.7,4.8,2.5,9.9,2.5,15.1c0.1,5.6-0.7,11.1-2.4,16.4
		c-1.3,4.2-3.6,8-6.6,11.2C422.3,64.6,419.1,66.7,415.6,68.1z M393.5,52.5c4.7,6.3,13.5,7.6,19.8,2.9c1.1-0.8,2-1.8,2.8-2.8
		c2.9-3.7,4.4-9.8,4.4-18.1c0-7.3-1.5-12.9-4.6-16.7c-3-3.8-6.8-5.8-11.2-5.8c-4.5,0-8.6,2.1-11.2,5.8c-3,3.8-4.5,9.4-4.5,16.7
		C389.1,42.7,390.5,48.7,393.5,52.5L393.5,52.5z"/>
	<path class="st0" d="M453,68.6V1.4h13l24.5,44.1h0.2V1.4h13.1v67.2H491l-24.9-44.1H466v44.1H453z"/>
	<path class="st0" d="M558.6,68.6V1.4h13v67.2H558.6z"/>
	<path class="st0" d="M590.6,46.2l13.6-3c0.8,5.3,2.2,9,4.1,11.4c1.9,2.3,5,3.5,9.3,3.5c3,0.1,6.1-0.6,8.7-2
		c2.1-1.2,3.4-3.4,3.3-5.8c0.1-2.5-1.1-4.8-3.1-6.2c-2.1-1.4-6.8-3.2-14.3-5.6c-7-2.2-11.9-4.8-14.8-7.9s-4.5-7.2-4.3-11.5
		c0-5.2,2.2-10.1,6.1-13.5c4-3.7,9.6-5.6,16.5-5.6c5.8-0.2,11.5,1.4,16.4,4.6c4.6,3.1,7.4,7.6,8.6,13.7L628,21.5
		c-2-6.3-6.1-9.5-12.4-9.5c-3.3,0-5.8,0.6-7.4,1.9c-1.6,1.2-2.5,3.1-2.4,5.1c0,1.9,1.1,3.7,2.8,4.6c1.9,1.1,6.6,2.9,14.3,5.5
		c7.4,2.6,12.5,5.3,15.3,8.3c2.7,3,4.1,7,4.1,12c0.1,5.7-2.4,11.1-6.7,14.8c-4.5,3.9-10.5,5.9-18,5.9c-7.6,0-13.8-2-18.5-6
		C594.3,60,591.5,54.1,590.6,46.2L590.6,46.2z"/>
	<path class="st0" d="M691.3,68.6V1.4h13v27.1h23V1.4h13v67.2h-13V39.5h-23v29.1H691.3z"/>
	<path class="st0" d="M799.3,68.1c-7,2.7-14.7,2.7-21.7,0c-3.5-1.4-6.6-3.4-9.3-6.1c-3-3.1-5.3-7-6.6-11.1
		c-1.7-5.3-2.6-10.8-2.5-16.4c-0.1-5.1,0.8-10.2,2.5-15.1c1.4-4.1,3.6-7.8,6.6-10.9c2.7-2.7,5.8-4.9,9.3-6.3
		c6.9-2.9,14.7-2.9,21.6,0c3.5,1.5,6.7,3.6,9.3,6.3c3,3.1,5.2,6.8,6.6,10.9c1.7,4.8,2.5,9.9,2.5,15.1c0.1,5.6-0.7,11.1-2.5,16.4
		c-1.3,4.2-3.6,8-6.6,11.2C805.9,64.6,802.7,66.7,799.3,68.1L799.3,68.1z M777.1,52.5c4.7,6.3,13.5,7.6,19.8,2.9
		c1.1-0.8,2-1.8,2.8-2.8c2.9-3.7,4.4-9.8,4.4-18.1c0-7.3-1.5-12.9-4.6-16.7s-6.8-5.8-11.2-5.8c-4.5,0-8.6,2.1-11.2,5.8
		c-3,3.8-4.5,9.4-4.5,16.7C772.7,42.7,774.1,48.7,777.1,52.5z"/>
	<path class="st0" d="M836.6,68.6V1.4H850L869.4,45h0.2l19.5-43.6h13.4v67.2h-12.7V27.4h-0.2l-19.1,41.3h-2.1l-19.1-41.3h-0.2v41.3
		L836.6,68.6L836.6,68.6z"/>
	<path class="st0" d="M925.4,68.6V1.4h42.5v12h-29.6v15.1h26.9V40h-26.9v16.6h29.6v12H925.4z"/>
	<path class="st0" d="M988.4,68.6V55h14.3v13.6H988.4z"/>
	<path class="st0" d="M1058.5,68.6V1.4h8v28.9h30V1.4h7.9v67.2h-7.9V37.4h-30v31.2H1058.5z"/>
	<path class="st0" d="M1154.7,70.1c-3.6,0-7.2-0.6-10.6-2s-6.4-3.5-9-6.1c-3-3.2-5.2-7-6.5-11.1c-1.7-5.3-2.5-10.8-2.4-16.4
		c0-10.9,2.8-19.4,8.3-25.4c5.1-5.8,12.5-9.1,20.2-9c7.7,0,14.3,3.1,19.8,9.2s8.3,14.7,8.3,25.6c0.1,5.5-0.7,11-2.3,16.3
		c-1.2,4.1-3.4,7.9-6.4,11c-2.5,2.6-5.6,4.6-8.9,6C1161.9,69.5,1158.3,70.1,1154.7,70.1z M1154.7,62.6c5.6,0.1,10.9-2.5,14.2-7
		c3.6-4.7,5.5-11.6,5.5-20.7c0-8.8-1.9-15.6-5.6-20.3s-8.4-7-14.1-7c-5.6-0.1-10.9,2.4-14.3,6.8c-3.8,4.5-5.7,11.2-5.7,20.1
		c0,9.2,1.9,16.2,5.6,21C1143.6,60.1,1149,62.7,1154.7,62.6z"/>
	<path class="st0" d="M1204.8,68.6V1.4h11.2l21,51.6h0.2l21-51.5h11.2v67.2h-7.8V12.6h-0.2l-23.1,56.1h-2.5l-23.1-56.1h-0.2v56.1
		L1204.8,68.6L1204.8,68.6z"/>
	<path class="st0" d="M1295.2,68.6V1.4h40.4v7.3h-32.4v21.8h29.8v7.1h-29.8v23.7h32.4v7.3H1295.2z"/>
	<path class="st0" d="M1404.5,68.6V8.7h-20.8V1.4h49.4v7.3h-20.7v59.9H1404.5z"/>
	<path class="st0" d="M1475.9,70.1c-3.6,0-7.2-0.6-10.6-2s-6.4-3.5-9-6.1c-3-3.2-5.2-7-6.5-11.1c-1.7-5.3-2.5-10.8-2.4-16.4
		c0-10.9,2.8-19.4,8.3-25.4c5.1-5.8,12.5-9.1,20.2-9c7.7,0,14.3,3.1,19.8,9.2s8.3,14.7,8.3,25.6c0.1,5.5-0.7,11-2.3,16.3
		c-1.2,4.1-3.4,7.9-6.4,11c-2.5,2.6-5.6,4.6-8.9,6C1483,69.5,1479.4,70.1,1475.9,70.1z M1475.9,62.6c5.6,0.1,10.9-2.5,14.2-7
		c3.7-4.7,5.5-11.6,5.5-20.7c0-8.8-1.9-15.6-5.6-20.3s-8.4-7-14.1-7c-5.6-0.1-10.9,2.4-14.3,6.8c-3.8,4.5-5.7,11.2-5.7,20.1
		c0,9.2,1.9,16.2,5.6,21C1464.8,60.1,1470.2,62.7,1475.9,62.6z"/>
	<path class="st0" d="M1550.2,68.6l24.2-67.2h7.8l24.2,67.2h-8.1l-5-13.2h-30.2l-4.9,13.2H1550.2z M1565.5,48.6h25.5l-12.7-36.5
		h-0.2L1565.5,48.6z"/>
	<path class="st0" d="M6.8,259.9v-67.2h8.6l30.6,54h0.2v-54h7.9v67.2h-8.4l-30.8-54.1h-0.2v54.1H6.8z"/>
	<path class="st0" d="M72.5,259.9v-67.2H113v7.3H80.5v21.8h29.8v7.1H80.5v23.7H113v7.3H72.5z"/>
	<path class="st0" d="M136.6,259.9l-12.4-67.2h8.2l10.1,55.5h0.2l16.7-55.5h8.4l16.8,55.5h0.2l9.9-55.5h8.2l-12.4,67.2h-9.8
		l-17-55.7h-0.2l-16.9,55.7H136.6z"/>
	<path class="st0" d="M248.1,259.9l-12.4-67.2h8.2l10.1,55.5h0.2l16.7-55.5h8.4l16.8,55.5h0.2l9.9-55.5h8.2L302,259.9h-9.8l-17-55.7
		H275l-17,55.7H248.1z"/>
	<path class="st0" d="M315.9,259.9l24.2-67.2h7.8l24.2,67.2H364l-5-13.2h-30.1l-4.9,13.2H315.9z M331.3,239.8h25.4L344,203.4h-0.2
		L331.3,239.8z"/>
	<path class="st0" d="M389.7,259.9V200h-20.8v-7.3h49.4v7.3h-20.7v59.9H389.7z"/>
	<path class="st0" d="M430,259.9v-67.2h40.4v7.3H438v21.8h29.8v7.1H438v23.7h32.5v7.3H430z"/>
	<path class="st0" d="M486.5,259.9v-67.2h25.8c7,0,12.5,1.7,16.5,5s6,8.3,6,14.9c0,5.4-1.5,9.7-4.5,13c-3.2,3.4-7.4,5.6-12,6.2
		l15,28h-8.9l-14.6-27.5h-15.3v27.5L486.5,259.9z M494.5,225.4h17.4c4.5,0,8.1-1,10.8-3c2.8-2,4.1-5.2,4.1-9.6
		c0-8.4-5.1-12.7-15.2-12.7h-17.2L494.5,225.4z"/>
	<path class="st0" d="M548.4,259.9v-67.2h40.5v7.3h-32.5v24.3h29.8v7h-29.8v28.6H548.4z"/>
	<path class="st0" d="M603,259.9v-67.2h25.8c7,0,12.5,1.7,16.5,5s6,8.3,6,14.9c0,5.4-1.5,9.7-4.5,13c-3.2,3.4-7.4,5.6-12,6.2l15,28
		h-8.9l-14.6-27.5H611v27.5L603,259.9z M611,225.4h17.4c4.5,0,8.1-1,10.8-3c2.8-2,4.1-5.2,4.1-9.6c0-8.4-5.1-12.7-15.2-12.7H611
		V225.4z"/>
	<path class="st0" d="M689.6,261.4c-3.6,0-7.2-0.6-10.6-2s-6.4-3.5-9-6.1c-3-3.2-5.2-7-6.5-11.1c-1.7-5.3-2.5-10.8-2.4-16.4
		c0-10.9,2.8-19.4,8.3-25.4c5.1-5.8,12.5-9.1,20.2-9c7.7,0,14.3,3.1,19.8,9.2s8.3,14.7,8.3,25.6c0.1,5.5-0.7,11-2.3,16.3
		c-1.2,4.1-3.4,7.9-6.4,11c-2.5,2.6-5.6,4.6-8.9,6C696.8,260.7,693.2,261.4,689.6,261.4L689.6,261.4z M689.6,253.9
		c5.6,0.1,10.9-2.5,14.2-7c3.7-4.7,5.5-11.6,5.5-20.7c0-8.8-1.9-15.6-5.6-20.2s-8.4-7-14.1-7c-5.6-0.1-10.9,2.4-14.3,6.8
		c-3.8,4.5-5.7,11.2-5.7,20.1c0,9.2,1.9,16.2,5.6,21C678.5,251.3,683.9,254,689.6,253.9L689.6,253.9z"/>
	<path class="st0" d="M732.3,259.9v-67.2h8.7l30.6,54h0.2v-54h7.9v67.2h-8.3l-30.8-54.1h-0.2v54.1H732.3z"/>
	<path class="st0" d="M812.2,259.9V200h-20.8v-7.3h49.4v7.3h-20.7v59.9H812.2z"/>
	<path class="st0" d="M842.9,259.9v-11.3h11.3v11.3H842.9z"/>
	<path class="st0" d="M888.2,259.9v-67.2h8v28.9h30v-28.9h7.9v67.2h-7.9v-31.2h-30v31.2H888.2z"/>
	<path class="st0" d="M977.2,261.4c-3.6,0-7.2-0.6-10.6-2s-6.4-3.5-9-6.1c-3-3.2-5.2-7-6.5-11.1c-1.7-5.3-2.5-10.8-2.4-16.4
		c0-10.9,2.8-19.4,8.3-25.4c5.1-5.8,12.5-9.1,20.2-9c7.7,0,14.3,3.1,19.8,9.2s8.3,14.7,8.3,25.6c0.1,5.5-0.7,11-2.3,16.3
		c-1.2,4.1-3.4,7.9-6.4,11c-2.5,2.6-5.6,4.6-8.9,6C984.4,260.7,980.8,261.4,977.2,261.4L977.2,261.4z M977.2,253.9
		c5.6,0.1,10.9-2.5,14.2-7c3.6-4.7,5.5-11.6,5.5-20.7c0-8.8-1.9-15.6-5.6-20.2c-3.3-4.4-8.5-7-14.1-7c-5.6-0.1-10.9,2.4-14.3,6.8
		c-3.8,4.5-5.7,11.2-5.7,20.1c0,9.2,1.9,16.2,5.6,21C966.1,251.3,971.5,254,977.2,253.9L977.2,253.9z"/>
	<path class="st0" d="M1020,259.9v-67.2h11.2l21,51.6h0.2l21-51.6h11.2v67.2h-7.8v-56.1h-0.2l-23.1,56.1h-2.5l-23.1-56.1h-0.2v56.1
		L1020,259.9z"/>
	<path class="st0" d="M1103.1,259.9v-67.2h40.4v7.3h-32.4v21.8h29.8v7.1h-29.8v23.7h32.4v7.3H1103.1z"/>
	<path class="st0" d="M1197.8,259.9V200H1177v-7.3h49.4v7.3h-20.7v59.9H1197.8z"/>
	<path class="st0" d="M1261.9,261.4c-3.6,0-7.2-0.6-10.6-2s-6.4-3.5-9-6.1c-3-3.2-5.2-7-6.5-11.1c-1.7-5.3-2.5-10.8-2.4-16.4
		c0-10.9,2.8-19.4,8.3-25.4c5.1-5.8,12.5-9.1,20.2-9c7.7,0,14.3,3.1,19.8,9.2s8.3,14.7,8.3,25.6c0.1,5.5-0.7,11-2.4,16.3
		c-1.2,4.1-3.4,7.9-6.4,11c-2.6,2.6-5.6,4.6-8.9,6C1269,260.7,1265.5,261.4,1261.9,261.4z M1261.9,253.9c5.6,0.1,10.9-2.5,14.2-7
		c3.6-4.7,5.5-11.6,5.5-20.7c0-8.8-1.9-15.6-5.6-20.2c-3.3-4.4-8.5-7-14.1-7c-5.6-0.1-10.9,2.4-14.3,6.8c-3.8,4.5-5.7,11.2-5.7,20.1
		c0,9.2,1.9,16.2,5.6,21C1250.8,251.3,1256.2,254,1261.9,253.9L1261.9,253.9z"/>
	<path class="st0" d="M1321.6,259.9l24.2-67.2h7.8l24.2,67.2h-8.1l-5-13.2h-30.1l-4.9,13.2H1321.6z M1337,239.8h25.4l-12.7-36.5
		h-0.2L1337,239.8z"/>
	<path class="st0" d="M1413.2,259.9v-67.2h8.6l30.6,54h0.2v-54h7.9v67.2h-8.3l-30.8-54.1h-0.2v54.1H1413.2z"/>
	<path class="st0" d="M1478.9,259.9v-67.2h40.4v7.3h-32.5v21.8h29.8v7.1h-29.8v23.7h32.4v7.3H1478.9z"/>
	<path class="st0" d="M1543,259.9l-12.4-67.2h8.2l10.1,55.5h0.2l16.7-55.5h8.3l16.8,55.5h0.2l9.9-55.5h8.2l-12.4,67.2h-9.8l-17-55.7
		h-0.2l-16.9,55.7H1543z"/>
	<path class="st0" d="M6.8,451.2V384h40.4v7.3H14.8v21.8h29.8v7.1H14.8v23.7h32.4v7.3L6.8,451.2z"/>
	<path class="st0" d="M70.6,451.2V384h8.6l30.6,54h0.2v-54h7.9v67.2h-8.3l-30.8-54h-0.2v54H70.6z"/>
	<path class="st0" d="M157.9,451.2v-59.9h-20.8V384h49.4v7.3h-20.7v59.9H157.9z"/>
	<path class="st0" d="M205.6,451.2V384H246v7.3h-32.4v21.8h29.8v7.1h-29.8v23.7H246v7.3L205.6,451.2z"/>
	<path class="st0" d="M269.4,451.2V384h25.8c7,0,12.5,1.7,16.5,5s6,8.3,6,14.9c0,5.4-1.5,9.7-4.5,13c-3.2,3.4-7.4,5.6-12,6.2l15,28
		h-8.9l-14.6-27.5h-15.3v27.5L269.4,451.2z M277.4,416.6h17.4c4.5,0,8.1-1,10.9-3s4.1-5.2,4.1-9.6c0-8.5-5.1-12.7-15.2-12.7h-17.2
		L277.4,416.6z"/>
	<path class="st0" d="M352.9,451.2v-59.9H332V384h49.4v7.3h-20.7v59.9H352.9z"/>
	<path class="st0" d="M387.6,451.2l24.2-67.2h7.8l24.2,67.2h-8.1l-5-13.1h-30.1l-4.9,13.1H387.6z M403,431.1h25.4l-12.7-36.5h-0.2
		L403,431.1z"/>
	<path class="st0" d="M462.9,451.2V384h8v67.2H462.9z"/>
	<path class="st0" d="M497.1,451.2V384h8.6l30.6,54h0.2v-54h7.9v67.2h-8.3l-30.8-54h-0.2v54H497.1z"/>
	<path class="st0" d="M570.3,451.2V384h11.2l21,51.6h0.2l21-51.6H635v67.2h-7.8v-56.1H627l-23.1,56.1h-2.5l-23.1-56.1H578v56.1
		H570.3z"/>
	<path class="st0" d="M660.8,451.2V384h40.4v7.3h-32.5v21.8h29.8v7.1h-29.8v23.7h32.5v7.3L660.8,451.2z"/>
	<path class="st0" d="M724.7,451.2V384h8.6l30.6,54h0.2v-54h7.9v67.2h-8.3l-30.8-54h-0.2v54H724.7z"/>
	<path class="st0" d="M811.9,451.2v-59.9h-20.8V384h49.5v7.3h-20.7v59.9H811.9z"/>
	<path class="st0" d="M888.3,451.2V384h8v28.9h30V384h7.9v67.2h-7.9V420h-30v31.2H888.3z"/>
	<path class="st0" d="M958.6,429.3V384h8v44.7c0,10.9,5.3,16.4,15.8,16.4c5.3,0,9.3-1.4,12-4.2s4.1-6.8,4.1-12V384h7.9v45.3
		c0,7.7-2.1,13.5-6.3,17.4s-10.1,5.9-17.6,5.9s-13.4-2-17.6-5.9C960.8,442.8,958.7,437,958.6,429.3L958.6,429.3z"/>
	<path class="st0" d="M1030.7,451.2V384h25.8c6,0,10.7,1.6,14.3,4.9c3.5,3.2,5.5,7.7,5.3,12.5c0,6.5-2.8,11-8.4,13.4v0.3
		c3.1,1,5.8,3,7.7,5.7c2.2,3.1,3.3,6.8,3.2,10.6c0,6.3-1.9,11.1-5.8,14.6s-9.8,5.2-17.9,5.2H1030.7z M1038.7,412.4h16.4
		c8.8,0,13.2-3.5,13.2-10.6c0.2-3-1.1-5.9-3.5-7.8c-2.3-1.8-5.6-2.7-9.7-2.7h-16.3L1038.7,412.4z M1038.7,443.9h15.2
		c5.6,0,9.9-1,12.7-3s4.2-5.2,4.2-9.6c0-4.3-1.3-7.3-4-9.1s-6.9-2.7-12.7-2.7h-15.4L1038.7,443.9z"/>
	<path class="st0" d="M1097.7,451.2v-11.3h11.3v11.3H1097.7z"/>
	<path class="st0" d="M1157.8,451.2V384h8v28.9h30V384h7.9v67.2h-7.9V420h-30v31.2H1157.8z"/>
	<path class="st0" d="M1254.2,452.6c-3.6,0-7.2-0.6-10.6-2s-6.4-3.5-9-6.1c-3-3.2-5.2-7-6.5-11.1c-1.7-5.3-2.5-10.8-2.4-16.4
		c0-10.9,2.8-19.4,8.4-25.4c5.1-5.8,12.4-9.1,20.2-9c7.7,0,14.3,3.1,19.8,9.2s8.3,14.7,8.3,25.6c0.1,5.5-0.7,11-2.4,16.3
		c-1.2,4.1-3.4,7.9-6.4,11c-2.5,2.6-5.6,4.6-8.9,6C1261.4,452,1257.8,452.7,1254.2,452.6z M1254.2,445.1c5.6,0.1,10.9-2.5,14.2-7
		c3.6-4.7,5.5-11.6,5.5-20.7c0-8.8-1.9-15.6-5.6-20.2c-3.3-4.5-8.5-7.1-14.1-7c-5.6-0.1-10.9,2.4-14.4,6.8
		c-3.8,4.5-5.7,11.2-5.7,20.1c0,9.2,1.9,16.2,5.6,21C1243.1,442.6,1248.5,445.3,1254.2,445.1L1254.2,445.1z"/>
	<path class="st0" d="M1304.3,451.2V384h11.2l21,51.6h0.2l21-51.6h11.3v67.2h-7.8v-56.1h-0.2l-23.1,56.1h-2.5l-23.1-56.1h-0.2v56.1
		H1304.3z"/>
	<path class="st0" d="M1394.8,451.2V384h40.4v7.3h-32.4v21.8h29.8v7.1h-29.8v23.7h32.4v7.3L1394.8,451.2z"/>
	<path class="st0" d="M1504.4,451.2v-59.9h-20.8V384h49.4v7.3h-20.7v59.9H1504.4z"/>
	<path class="st0" d="M1575.8,452.6c-3.6,0-7.2-0.6-10.6-2s-6.4-3.5-9-6.1c-3-3.2-5.2-7-6.5-11.1c-1.7-5.3-2.5-10.8-2.4-16.4
		c0-10.9,2.8-19.4,8.3-25.4c5.1-5.8,12.5-9.1,20.2-9c7.7,0,14.3,3.1,19.8,9.2s8.3,14.7,8.3,25.6c0.1,5.5-0.7,11-2.3,16.3
		c-1.2,4.1-3.4,7.9-6.4,11c-2.5,2.6-5.6,4.6-8.9,6C1583,452,1579.4,452.7,1575.8,452.6z M1575.8,445.1c5.6,0.1,10.9-2.5,14.2-7
		c3.7-4.7,5.5-11.6,5.5-20.7c0-8.8-1.9-15.6-5.6-20.2c-3.7-4.7-8.4-7-14.1-7c-5.6-0.1-10.9,2.4-14.3,6.8c-3.8,4.5-5.7,11.2-5.7,20.1
		c0,9.2,1.9,16.2,5.6,21C1564.7,442.6,1570.1,445.3,1575.8,445.1L1575.8,445.1z"/>
	<path class="st0" d="M34.7,643.9c-3.6,0-7.2-0.6-10.6-2s-6.4-3.5-9-6.1c-3-3.2-5.2-7-6.5-11.1c-1.7-5.3-2.5-10.8-2.4-16.4
		c0-10.9,2.8-19.4,8.4-25.4c5.1-5.8,12.5-9.1,20.2-9c7.7,0,14.3,3.1,19.8,9.2s8.3,14.7,8.3,25.6c0.1,5.5-0.7,11-2.4,16.3
		c-1.2,4.1-3.4,7.9-6.4,11c-2.5,2.6-5.6,4.6-8.9,6C41.8,643.3,38.2,643.9,34.7,643.9z M34.7,636.4c5.6,0.1,10.9-2.5,14.2-7
		c3.7-4.7,5.5-11.6,5.5-20.7c0-8.8-1.9-15.6-5.6-20.3c-3.3-4.4-8.5-7-14.1-7c-5.6-0.1-10.9,2.4-14.4,6.8c-3.8,4.5-5.7,11.2-5.7,20.1
		c0,9.2,1.9,16.2,5.6,21C23.6,633.9,29,636.5,34.7,636.4L34.7,636.4z"/>
	<path class="st0" d="M92,642.4l-23.7-67.2h8.5l19.8,57.5h0.2l19.4-57.5h8.4l-23.2,67.2H92z"/>
	<path class="st0" d="M136.8,642.4v-67.2h40.4v7.3h-32.4v21.8h29.8v7.1h-29.8v23.7h32.4v7.3L136.8,642.4z"/>
	<path class="st0" d="M194.2,642.4v-67.2H220c7,0,12.5,1.7,16.5,5s6,8.3,6,14.9c0,5.4-1.5,9.7-4.5,13c-3.2,3.4-7.4,5.6-12,6.2l15,28
		h-9L217.4,615h-15.3v27.5L194.2,642.4z M202.2,607.9h17.4c4.5,0,8.1-1,10.9-3s4.1-5.2,4.1-9.7c0-8.5-5.1-12.7-15.2-12.7h-17.2
		V607.9z"/>
	<path class="st0" d="M279.3,642.4v-6c0-6.2,1.1-11,3.5-14.4c2.1-3.3,7.1-7.1,15-11.2l5.4-3c0.9-0.5,2.3-1.3,4.1-2.5
		c1.3-0.8,2.5-1.7,3.6-2.7c0.6-0.6,1.3-1.5,2.2-2.6c0.8-1,1.4-2.1,1.7-3.3s0.4-2.5,0.4-3.8c0-3.1-1.2-6.2-3.4-8.4
		c-2.3-2.3-5.7-3.5-10.2-3.5c-4.4,0-8,1.4-10.6,4.1c-2.7,2.7-4.1,6.5-4.4,11.5l-7.7-0.8c0.3-6.9,2.5-12.3,6.7-16.2s9.6-5.8,16.2-5.8
		c6.7,0,11.8,1.9,15.5,5.6s5.7,8.7,5.6,13.9c0,2.6-0.4,5.2-1.2,7.7c-1,2.4-2.5,4.5-4.5,6.1c-1.6,1.4-3.2,2.7-5,3.9
		c-1.2,0.7-3.4,2-6.6,3.7l-1.3,0.8l-3.2,1.7c-1.4,0.7-2.3,1.2-2.8,1.5s-1.3,0.7-2.3,1.3c-0.7,0.4-1.4,0.9-2.1,1.3l-1.6,1.2
		c-0.6,0.4-1.1,0.9-1.5,1.4s-0.7,0.9-1.1,1.4c-1.3,2-1.9,5-1.9,8.9H323v8L279.3,642.4z"/>
	<path class="st0" d="M359.8,643.9c-7.9,0-14-3.1-18.4-9.3s-6.6-15.1-6.6-26.6c0-11,2.3-19.5,6.9-25.3c7.8-10,22.3-11.8,32.3-4
		c1.5,1.2,2.8,2.5,4,4c4.6,5.9,6.9,14.3,6.9,25.3c0,11.5-2.2,20.4-6.6,26.6C373.7,640.8,367.6,643.9,359.8,643.9L359.8,643.9z
		 M347.2,629c2.9,5,7.1,7.5,12.6,7.5s9.7-2.5,12.6-7.5s4.3-12.1,4.3-21.2c0-8.6-1.5-15.2-4.4-19.8c-4.3-6.9-13.3-9-20.2-4.8
		c-1.9,1.2-3.6,2.8-4.8,4.8c-3,4.6-4.4,11.2-4.4,19.9C342.9,617,344.4,624,347.2,629z"/>
	<path class="st0" d="M449.7,643.9c-3.6,0-7.2-0.6-10.6-2s-6.4-3.5-9-6.1c-3-3.2-5.2-7-6.5-11.1c-1.7-5.3-2.5-10.8-2.4-16.4
		c0-10.9,2.8-19.4,8.4-25.4c5.1-5.8,12.5-9.1,20.2-9c7.7,0,14.3,3.1,19.8,9.2s8.3,14.7,8.3,25.6c0.1,5.5-0.7,11-2.4,16.3
		c-1.2,4.1-3.4,7.9-6.4,11c-2.5,2.6-5.6,4.6-8.9,6C456.8,643.3,453.3,643.9,449.7,643.9z M449.7,636.4c5.6,0.1,10.9-2.5,14.2-7
		c3.6-4.7,5.5-11.6,5.5-20.7c0-8.8-1.9-15.6-5.6-20.3s-8.4-7-14.1-7c-5.6-0.1-10.9,2.4-14.4,6.8c-3.8,4.5-5.7,11.2-5.7,20.1
		c0,9.2,1.9,16.2,5.6,21C438.6,633.9,444,636.5,449.7,636.4L449.7,636.4z"/>
	<path class="st0" d="M493.4,642.4v-67.2h40.5v7.3h-32.5v24.3h29.9v7h-29.9v28.6L493.4,642.4z"/>
	<path class="st0" d="M588.2,642.4v-59.9h-20.8v-7.3h49.4v7.3h-20.7v59.9H588.2z"/>
	<path class="st0" d="M629.5,642.4v-67.2h8v28.9h30v-28.9h7.9v67.2h-7.8v-31.2h-30v31.2H629.5z"/>
	<path class="st0" d="M694.8,642.4v-67.2h40.4v7.3h-32.4v21.8h29.8v7.1h-29.8v23.7h32.4v7.3L694.8,642.4z"/>
	<path class="st0" d="M777.3,642.4v-67.2h25.8c6,0,10.7,1.6,14.3,4.9c3.5,3.2,5.5,7.7,5.3,12.5c0,6.5-2.8,11-8.4,13.4v0.3
		c3.1,1,5.8,3,7.7,5.7c2.2,3.1,3.3,6.8,3.2,10.6c0,6.3-1.9,11.1-5.8,14.6s-9.8,5.2-17.9,5.2H777.3z M785.3,603.7h16.4
		c8.8,0,13.2-3.5,13.2-10.6c0.2-3-1.1-5.9-3.5-7.8c-2.3-1.8-5.6-2.7-9.7-2.7h-16.3L785.3,603.7z M785.3,635.1h15.2
		c5.6,0,9.9-1,12.7-3s4.2-5.2,4.2-9.6s-1.3-7.3-4-9.1s-6.9-2.7-12.7-2.7h-15.4V635.1z"/>
	<path class="st0" d="M840.8,642.4v-67.2h40.4v7.3h-32.5v21.8h29.8v7.1h-29.8v23.7h32.5v7.3L840.8,642.4z"/>
	<path class="st0" d="M893.9,619.3l8.3-1.6c1,6.5,2.8,11.3,5.5,14.3s7.2,4.5,13.4,4.5c5,0,8.8-1.1,11.3-3.4c2.5-2,3.9-5.1,3.8-8.2
		c0.1-2.9-1.2-5.8-3.5-7.6c-2.3-1.9-7.3-4.1-15.1-6.6c-7.4-2.4-12.8-5-16-7.8s-5-7-4.8-11.3c0-4.8,2.1-9.4,5.7-12.5
		c3.8-3.5,8.9-5.2,15.4-5.2c6.3,0,11.6,1.6,15.8,4.7s6.8,7.7,7.6,13.8l-8.1,1.7c-0.8-4.1-2.3-7.2-4.7-9.4s-5.9-3.3-10.7-3.3
		c-4.2,0-7.5,1-9.7,2.9c-2.2,1.8-3.4,4.4-3.4,7.2c-0.1,2.5,1.1,4.8,3.1,6.2c2,1.6,6.6,3.6,13.6,5.9c8.9,2.9,14.9,5.8,18,8.7
		s4.6,7,4.6,12.1c0.1,5.3-2.2,10.4-6.3,13.8c-4.2,3.8-9.9,5.6-17.2,5.6C904.9,643.9,895.9,635.7,893.9,619.3L893.9,619.3z"/>
	<path class="st0" d="M971.5,642.4v-59.9h-20.8v-7.3h49.4v7.3h-20.7v59.9H971.5z"/>
	<path class="st0" d="M1042.7,642.4l-12.4-67.2h8.2l10.1,55.5h0.2l16.7-55.5h8.3l16.8,55.5h0.2l9.9-55.5h8.2l-12.4,67.2h-9.8
		l-17-55.7h-0.2l-16.9,55.7H1042.7z"/>
	<path class="st0" d="M1111.4,642.4l24.2-67.2h7.8l24.2,67.2h-8.1l-5-13.2h-30.1l-4.9,13.2H1111.4z M1126.8,622.4h25.4l-12.7-36.5
		h-0.2L1126.8,622.4z"/>
	<path class="st0" d="M1186.2,642.4v-59.9h-20.8v-7.3h49.4v7.3h-20.7v59.9H1186.2z"/>
	<path class="st0" d="M1227.5,642.4v-67.2h40.4v7.3h-32.4v21.8h29.8v7.1h-29.8v23.7h32.4v7.3L1227.5,642.4z"/>
	<path class="st0" d="M1284.9,642.4v-67.2h25.8c7,0,12.5,1.7,16.5,5s6,8.3,6,14.9c0,5.4-1.5,9.7-4.5,13c-3.2,3.4-7.4,5.6-12,6.2
		l15,28h-8.9l-14.7-27.4h-15.3v27.5H1284.9z M1292.9,607.9h17.4c4.5,0,8.1-1,10.8-3c2.8-2,4.1-5.2,4.1-9.7c0-8.5-5.1-12.7-15.2-12.7
		h-17.2L1292.9,607.9z"/>
	<path class="st0" d="M1347.8,642.4v-67.2h40.5v7.3h-32.6v24.3h29.9v7h-29.9v28.6L1347.8,642.4z"/>
	<path class="st0" d="M1391.3,642.4l24.2-67.2h7.8l24.2,67.2h-8.1l-5-13.2h-30.2l-4.9,13.2H1391.3z M1406.7,622.4h25.4l-12.7-36.5
		h-0.2L1406.7,622.4z"/>
	<path class="st0" d="M1459.7,642.4v-67.2h8v59.9h29.2v7.3H1459.7z"/>
	<path class="st0" d="M1510,642.4v-67.2h8v59.9h29.2v7.3H1510z"/>
	<path class="st0" d="M1556,619.3l8.3-1.6c1,6.5,2.8,11.3,5.5,14.3s7.2,4.5,13.4,4.5c5,0,8.8-1.1,11.3-3.4c2.5-2,3.9-5.1,3.8-8.2
		c0.1-2.9-1.2-5.8-3.4-7.6c-2.3-1.9-7.3-4.1-15.1-6.6c-7.4-2.4-12.8-5-16-7.8s-5-7-4.8-11.3c0-4.8,2.1-9.4,5.7-12.5
		c3.8-3.5,8.9-5.2,15.4-5.2c6.3,0,11.6,1.6,15.8,4.7s6.7,7.7,7.6,13.8l-8.1,1.7c-0.8-4.1-2.3-7.2-4.7-9.4c-2.3-2.2-5.9-3.3-10.7-3.3
		c-4.2,0-7.4,1-9.7,2.9c-2.2,1.8-3.4,4.4-3.4,7.2c-0.1,2.5,1.1,4.8,3.1,6.2c2.1,1.6,6.6,3.6,13.6,5.9c8.9,2.9,14.9,5.8,18,8.7
		s4.6,7,4.6,12.1c0.1,5.3-2.2,10.4-6.2,13.9c-4.2,3.8-9.9,5.6-17.2,5.6C1567,643.9,1558,635.7,1556,619.3L1556,619.3z"/>
	<path class="st0" d="M7.2,833.7v-67.2h8v67.2H7.2z"/>
	<path class="st0" d="M46,833.7v-67.2h8.6l30.6,54h0.2v-54h7.9v67.2H85l-30.8-54.1H54v54L46,833.7z"/>
	<path class="st0" d="M159.8,833.7v-67.2h8.6l30.6,54h0.2v-54h7.9v67.2h-8.4l-30.8-54h-0.2v54H159.8z"/>
	<path class="st0" d="M262.1,835.2c-3.6,0-7.2-0.6-10.6-2s-6.4-3.5-9-6.1c-3-3.2-5.2-7-6.5-11.2c-1.7-5.3-2.5-10.8-2.4-16.4
		c0-10.9,2.8-19.4,8.4-25.4c5.1-5.8,12.5-9.1,20.2-9c7.7,0,14.3,3.1,19.8,9.2s8.3,14.7,8.3,25.6c0.1,5.5-0.7,11-2.4,16.3
		c-1.2,4.1-3.4,7.9-6.4,11c-2.5,2.6-5.6,4.6-8.9,6C269.2,834.5,265.7,835.2,262.1,835.2L262.1,835.2z M262.1,827.7
		c5.6,0.1,10.9-2.5,14.2-7c3.6-4.7,5.5-11.6,5.5-20.7c0-8.8-1.9-15.6-5.6-20.2c-3.3-4.4-8.5-7-14.1-7c-5.6-0.1-10.9,2.4-14.4,6.8
		c-3.8,4.5-5.8,11.2-5.8,20c0,9.2,1.9,16.2,5.6,21C251,825.1,256.4,827.8,262.1,827.7L262.1,827.7z"/>
	<path class="st0" d="M316.7,833.7v-67.2h25.8c7,0,12.5,1.7,16.5,5s6,8.3,6,14.9c0,5.4-1.5,9.7-4.5,13c-3.2,3.4-7.4,5.6-12,6.2
		l15,28h-8.9L340,806.2h-15.3v27.5H316.7z M324.7,799.2h17.4c4.5,0,8.1-1,10.9-3s4.1-5.2,4.1-9.7c0-8.4-5.1-12.7-15.2-12.7h-17.2
		L324.7,799.2z"/>
	<path class="st0" d="M404.7,833.7v-59.9h-20.8v-7.3h49.4v7.3h-20.7v59.9H404.7z"/>
	<path class="st0" d="M456.9,833.7v-67.2h8v28.9h30v-28.9h7.9v67.2h-7.9v-31.2h-30v31.2H456.9z"/>
	<path class="st0" d="M562,833.7l24.2-67.2h7.8l24.2,67.2h-8.1l-5-13.2H575l-4.9,13.2H562z M577.4,813.6h25.4l-12.7-36.5h-0.2
		L577.4,813.6z"/>
	<path class="st0" d="M641.3,833.7v-67.2h11.2l21,51.5h0.2l21-51.5H706v67.2h-7.8v-56.1H698l-23.1,56.1h-2.5l-23.1-56.1h-0.2v56.1
		H641.3z"/>
	<path class="st0" d="M736.3,833.7v-67.2h40.4v7.3h-32.4v21.8h29.8v7.1h-29.8v23.7h32.4v7.3L736.3,833.7z"/>
	<path class="st0" d="M804.7,833.7v-67.2h25.8c7,0,12.5,1.7,16.5,5s6,8.3,6,14.9c0,5.4-1.5,9.7-4.5,13c-3.2,3.4-7.4,5.6-12,6.2
		l15,28h-8.9L828,806.2h-15.3v27.5H804.7z M812.7,799.2H830c4.5,0,8.1-1,10.8-3c2.8-2,4.1-5.2,4.1-9.7c0-8.4-5.1-12.7-15.2-12.7
		h-17.2L812.7,799.2z"/>
	<path class="st0" d="M879,833.7v-67.2h8v67.2H879z"/>
	<path class="st0" d="M942.5,772.7c-5.6-0.1-10.9,2.4-14.3,6.8c-3.8,4.5-5.7,11.2-5.7,20.1c0,9.2,1.9,16.2,5.6,21
		c3.4,4.6,8.8,7.3,14.5,7.2c10.1,0,15.8-6.3,17.1-18.9l8.3,1c-0.7,7.9-3.2,14.1-7.6,18.6s-10.3,6.8-17.9,6.8c-3.6,0-7.2-0.6-10.6-2
		s-6.4-3.5-9-6.1c-3-3.2-5.2-7-6.5-11.1c-1.7-5.3-2.5-10.8-2.4-16.4c0-10.9,2.8-19.4,8.3-25.4c5.1-5.8,12.5-9.1,20.2-9
		c7,0,12.8,2.1,17.2,6.4s7.1,10,8.1,17l-8.1,1.4C957.7,778.4,952,772.7,942.5,772.7L942.5,772.7z"/>
	<path class="st0" d="M984.8,833.7l24.2-67.2h7.8l24.2,67.2h-8.1l-5-13.2h-30.1l-4.9,13.2H984.8z M1000.2,813.6h25.4l-12.7-36.5
		h-0.2L1000.2,813.6z"/>
	<path class="st0" d="M1064.1,833.7v-11.3h11.3v11.3H1064.1z"/>
	<path class="st0" d="M1133.2,833.7v-67.2h8v28.9h30v-28.9h7.9v67.2h-7.9v-31.2h-30v31.2H1133.2z"/>
	<path class="st0" d="M1234.1,835.2c-3.6,0-7.2-0.6-10.6-2s-6.4-3.5-9-6.1c-3-3.2-5.2-7-6.5-11.2c-1.7-5.3-2.5-10.8-2.4-16.4
		c0-10.9,2.8-19.4,8.3-25.4c5.1-5.8,12.5-9.1,20.2-9c7.7,0,14.3,3.1,19.8,9.2s8.3,14.7,8.3,25.6c0.1,5.5-0.7,11-2.4,16.3
		c-1.2,4.1-3.4,7.9-6.4,11c-2.5,2.6-5.6,4.6-8.9,6C1241.2,834.5,1237.7,835.2,1234.1,835.2L1234.1,835.2z M1234.1,827.7
		c5.6,0.1,10.9-2.5,14.2-7c3.6-4.7,5.5-11.6,5.5-20.7c0-8.8-1.9-15.6-5.6-20.2c-3.3-4.4-8.5-7-14.1-7c-5.6-0.1-10.9,2.4-14.3,6.8
		c-3.8,4.5-5.7,11.2-5.7,20.1c0,9.2,1.9,16.2,5.6,21C1223,825.1,1228.4,827.8,1234.1,827.7L1234.1,827.7z"/>
	<path class="st0" d="M1288.7,833.7v-67.2h11.3l21,51.5h0.2l21-51.5h11.2v67.2h-7.8v-56.1h-0.2l-23.1,56.1h-2.5l-23.1-56.1h-0.2
		v56.1H1288.7z"/>
	<path class="st0" d="M1383.8,833.7v-67.2h40.4v7.3h-32.4v21.8h29.8v7.1h-29.8v23.7h32.4v7.3L1383.8,833.7z"/>
	<path class="st0" d="M1502.3,833.7v-59.9h-20.8v-7.3h49.4v7.3h-20.7v59.9H1502.3z"/>
	<path class="st0" d="M1578.3,835.2c-3.6,0-7.2-0.6-10.6-2s-6.4-3.5-9-6.1c-3-3.2-5.2-7-6.5-11.1c-1.7-5.3-2.5-10.8-2.4-16.4
		c0-10.9,2.8-19.4,8.4-25.4c5.1-5.8,12.5-9.1,20.2-9c7.7,0,14.3,3.1,19.8,9.2s8.3,14.7,8.3,25.6c0.1,5.5-0.7,11-2.3,16.3
		c-1.2,4.1-3.4,7.9-6.4,11c-2.6,2.6-5.6,4.6-8.9,6C1585.4,834.5,1581.8,835.2,1578.3,835.2z M1578.3,827.7c5.6,0.1,10.9-2.5,14.2-7
		c3.6-4.7,5.5-11.6,5.5-20.7c0-8.8-1.9-15.6-5.6-20.2c-3.3-4.4-8.5-7-14.1-7c-5.6-0.1-10.9,2.4-14.4,6.8c-3.8,4.5-5.7,11.2-5.7,20.1
		c0,9.2,1.9,16.2,5.6,21C1567.1,825.1,1572.6,827.8,1578.3,827.7L1578.3,827.7z"/>
	<path class="st0" d="M4.6,1025v-6c0-6.2,1.2-11,3.5-14.4c2.1-3.3,7.1-7.1,15-11.2l5.4-3c0.9-0.5,2.3-1.3,4.1-2.5
		c1.3-0.8,2.5-1.7,3.7-2.7c0.6-0.6,1.3-1.5,2.2-2.6c0.8-1,1.4-2.1,1.7-3.3s0.4-2.5,0.4-3.8c0.1-3.1-1.2-6.2-3.4-8.4
		c-2.3-2.3-5.7-3.5-10.2-3.5c-4.4,0-7.9,1.4-10.6,4.1s-4.1,6.5-4.4,11.5l-7.7-0.8c0.3-6.9,2.5-12.3,6.7-16.2s9.6-5.8,16.1-5.8
		c6.7,0,11.9,1.9,15.6,5.6s5.7,8.7,5.6,13.9c0.1,2.6-0.4,5.2-1.2,7.7c-1,2.4-2.5,4.5-4.5,6.1c-1.6,1.4-3.2,2.7-5,3.9
		c-1.2,0.7-3.4,2-6.6,3.7l-1.4,0.8c-0.7,0.4-1.7,0.9-3.1,1.7c-1.4,0.7-2.3,1.2-2.8,1.5l-2.2,1.3c-0.7,0.4-1.4,0.9-2.1,1.3
		c-0.4,0.3-0.9,0.7-1.6,1.2c-0.6,0.4-1.1,0.9-1.5,1.4s-0.7,0.9-1.1,1.4c-1.3,2-1.9,5-1.9,8.9h35.3v8h-44L4.6,1025z"/>
	<path class="st0" d="M67.1,1007.8l7.6-2.7c2.6,9.3,8,14,16.4,14c4.8,0,8.6-1.5,11.4-4.5s4.2-7.1,4.2-12.2c0-4.9-1.4-8.8-4.2-11.6
		s-6.5-4.2-11.1-4.2c-6.1-0.2-11.8,2.8-15,8.1l-7.1-3.1l6-33.8h33.1v7.3h-27l-3.8,21.2l0.1,0.1c1.6-2,3.7-3.5,6-4.5
		c2.9-1.3,6.1-1.9,9.4-1.9c5.7-0.1,11.2,2.1,15.2,6.2c4.2,4.1,6.2,9.5,6.2,16.3c0,7.2-2.2,13-6.6,17.4c-4.4,4.3-10,6.5-16.8,6.5
		c-6.2,0-11.4-1.7-15.5-5.1C71.5,1017.8,68.5,1013.1,67.1,1007.8L67.1,1007.8z"/>
	<path class="st0" d="M134.8,1035.2v-4.3c3.1-0.6,4.6-2.5,4.6-5.9h-4.6v-11.3h11.3v9.9C146.2,1030.8,142.4,1034.6,134.8,1035.2z"/>
	<path class="st0" d="M192.9,1026.4c-7.9,0-14-3.1-18.4-9.3s-6.6-15.1-6.6-26.6c0-11,2.3-19.5,6.9-25.3c7.8-10,22.3-11.8,32.3-4
		c1.5,1.2,2.8,2.5,4,4c4.6,5.9,6.9,14.3,6.9,25.3c0,11.5-2.2,20.4-6.6,26.6S200.7,1026.4,192.9,1026.4L192.9,1026.4z M180.3,1011.6
		c2.9,5,7.1,7.5,12.6,7.5s9.7-2.5,12.6-7.5s4.3-12.1,4.3-21.2c0-8.6-1.5-15.2-4.4-19.8c-4.3-6.9-13.3-9.1-20.2-4.8
		c-1.9,1.2-3.6,2.8-4.8,4.8c-2.9,4.6-4.4,11.2-4.4,19.9C176,999.5,177.4,1006.5,180.3,1011.6L180.3,1011.6z"/>
	<path class="st0" d="M260.3,1026.4c-7.9,0-14-3.1-18.4-9.3s-6.6-15.1-6.6-26.6c0-11,2.3-19.5,6.9-25.3c7.8-10,22.3-11.8,32.3-4
		c1.5,1.2,2.8,2.5,4,4c4.6,5.9,6.9,14.3,6.9,25.3c0,11.5-2.2,20.4-6.6,26.6S268.1,1026.4,260.3,1026.4L260.3,1026.4z M247.7,1011.6
		c2.9,5,7.1,7.5,12.6,7.5s9.7-2.5,12.6-7.5s4.3-12.1,4.3-21.2c0-8.6-1.5-15.2-4.4-19.8c-4.3-6.9-13.3-9.1-20.2-4.8
		c-1.9,1.2-3.6,2.8-4.8,4.8c-2.9,4.6-4.4,11.2-4.4,19.9C243.4,999.5,244.8,1006.5,247.7,1011.6L247.7,1011.6z"/>
	<path class="st0" d="M327.7,1026.4c-7.9,0-14-3.1-18.4-9.3s-6.6-15.1-6.6-26.6c0-11,2.3-19.5,6.9-25.3c7.8-10,22.3-11.8,32.3-4
		c1.5,1.2,2.8,2.5,4,4c4.6,5.9,6.9,14.3,6.9,25.3c0,11.5-2.2,20.4-6.6,26.6S335.5,1026.4,327.7,1026.4L327.7,1026.4z M315.1,1011.6
		c2.9,5,7.1,7.5,12.6,7.5s9.7-2.5,12.6-7.5s4.3-12.1,4.3-21.2c0-8.6-1.5-15.2-4.4-19.8c-4.3-6.9-13.3-9.1-20.2-4.8
		c-1.9,1.2-3.6,2.8-4.8,4.8c-2.9,4.6-4.4,11.2-4.4,19.9C310.8,999.5,312.2,1006.5,315.1,1011.6z"/>
	<path class="st0" d="M406.1,1025v-67.2h25.8c6.8,0,12.2,1.8,16.3,5.4s6.1,8.7,6.1,15.3c0,6.5-2,11.6-6,15.2s-9.4,5.4-16.2,5.4H414
		v25.9H406.1z M414.1,991.8h17.6c3.8,0.1,7.5-1,10.5-3.4c2.8-2.2,4.2-5.5,4.2-9.9c0-4.5-1.4-7.9-4.2-10.1c-3.1-2.3-6.8-3.5-10.6-3.3
		h-17.4L414.1,991.8z"/>
	<path class="st0" d="M473.2,1025v-67.2h40.4v7.3h-32.5v21.8h29.8v7.1h-29.8v23.7h32.5v7.3H473.2z"/>
	<path class="st0" d="M561.9,1026.4c-3.6,0-7.2-0.6-10.6-2s-6.4-3.5-9-6.1c-3-3.2-5.2-7-6.5-11.1c-1.7-5.3-2.5-10.8-2.4-16.4
		c0-10.9,2.8-19.4,8.3-25.4c5.1-5.8,12.5-9.1,20.2-9c7.7,0,14.3,3.1,19.8,9.2s8.3,14.7,8.3,25.6c0.1,5.5-0.7,11-2.3,16.3
		c-1.2,4.1-3.4,7.9-6.4,11c-2.5,2.6-5.6,4.6-8.9,6C569.1,1025.8,565.5,1026.5,561.9,1026.4L561.9,1026.4z M561.9,1018.9
		c5.6,0.1,10.9-2.5,14.2-7c3.7-4.7,5.5-11.6,5.5-20.7c0-8.8-1.9-15.6-5.6-20.3c-3.3-4.4-8.5-7-14.1-7c-5.6-0.1-10.9,2.4-14.3,6.8
		c-3.8,4.5-5.7,11.2-5.7,20.1c0,9.2,1.9,16.2,5.6,21C550.8,1016.4,556.2,1019,561.9,1018.9L561.9,1018.9z"/>
	<path class="st0" d="M612.2,1025v-67.2H638c6.8,0,12.2,1.8,16.3,5.4s6.1,8.7,6.1,15.3c0,6.5-2,11.6-6,15.2s-9.4,5.4-16.2,5.4h-18
		v25.9H612.2z M620.2,991.8h17.6c3.8,0.1,7.5-1,10.5-3.4c2.8-2.2,4.2-5.5,4.2-9.9c0-4.5-1.4-7.9-4.2-10.1c-3.1-2.3-6.8-3.5-10.7-3.3
		h-17.4L620.2,991.8z"/>
	<path class="st0" d="M679.3,1025v-67.2h8v59.9h29.2v7.3H679.3z"/>
	<path class="st0" d="M736.2,1025v-67.2h40.4v7.3h-32.5v21.8H774v7.1h-29.8v23.7h32.5v7.3H736.2z"/>
	<path class="st0" d="M839.7,1025l-12.4-67.2h8.2l10.1,55.5h0.2l16.7-55.5h8.3l16.8,55.5h0.2l9.9-55.5h8.2l-12.4,67.2h-9.8l-17-55.7
		h-0.2l-16.9,55.7H839.7z"/>
	<path class="st0" d="M927,1025v-67.2h8v28.9h30v-28.9h7.9v67.2H965v-31.2h-30v31.2H927z"/>
	<path class="st0" d="M1023.6,1026.4c-3.6,0-7.2-0.6-10.6-2s-6.4-3.5-9-6.1c-3-3.2-5.2-7-6.5-11.1c-1.7-5.3-2.5-10.8-2.4-16.4
		c0-10.9,2.8-19.4,8.3-25.4c5.1-5.8,12.5-9.1,20.2-9c7.7,0,14.3,3.1,19.8,9.2s8.3,14.7,8.3,25.6c0.1,5.5-0.7,11-2.3,16.3
		c-1.2,4.1-3.4,7.9-6.4,11c-2.5,2.6-5.6,4.6-8.9,6C1030.7,1025.8,1027.2,1026.5,1023.6,1026.4z M1023.6,1018.9
		c5.6,0.1,10.9-2.5,14.2-7c3.7-4.7,5.5-11.6,5.5-20.7c0-8.8-1.9-15.6-5.6-20.3c-3.3-4.4-8.5-7-14.1-7c-5.6-0.1-10.9,2.4-14.3,6.8
		c-3.8,4.5-5.7,11.2-5.7,20.1c0,9.2,1.9,16.2,5.6,21C1012.5,1016.4,1017.9,1019,1023.6,1018.9L1023.6,1018.9z"/>
	<path class="st0" d="M1130.3,963.9c-5.6-0.1-10.9,2.4-14.3,6.8c-3.8,4.5-5.7,11.2-5.7,20.1c0,9.2,1.9,16.2,5.6,21
		c3.4,4.6,8.8,7.3,14.5,7.2c10.1,0,15.8-6.3,17.1-18.9l8.3,1.1c-0.7,7.9-3.2,14.1-7.6,18.6s-10.3,6.8-17.9,6.8
		c-3.6,0-7.2-0.6-10.6-2s-6.4-3.5-9-6.1c-3-3.2-5.2-7-6.5-11.1c-1.7-5.3-2.5-10.8-2.4-16.4c0-10.9,2.8-19.4,8.3-25.4
		c5.1-5.8,12.5-9.1,20.2-9c7,0,12.8,2.1,17.2,6.4s7.1,10,8.1,17l-8.1,1.4C1145.6,969.7,1139.9,963.9,1130.3,963.9z"/>
	<path class="st0" d="M1202.1,1026.4c-3.6,0-7.2-0.6-10.6-2s-6.4-3.5-9-6.1c-3-3.2-5.2-7-6.5-11.1c-1.7-5.3-2.5-10.8-2.4-16.4
		c0-10.9,2.8-19.4,8.3-25.4c5.1-5.8,12.5-9.1,20.2-9c7.7,0,14.3,3.1,19.8,9.2s8.3,14.7,8.3,25.6c0.1,5.5-0.7,11-2.3,16.3
		c-1.2,4.1-3.4,7.9-6.4,11c-2.5,2.6-5.6,4.6-8.9,6C1209.3,1025.8,1205.7,1026.5,1202.1,1026.4z M1202.1,1018.9
		c5.6,0.1,10.9-2.5,14.2-7c3.7-4.7,5.5-11.6,5.5-20.7c0-8.8-1.9-15.6-5.6-20.3c-3.3-4.4-8.5-7-14.1-7c-5.6-0.1-10.9,2.4-14.3,6.8
		c-3.8,4.5-5.7,11.2-5.7,20.1c0,9.2,1.9,16.2,5.6,21C1191,1016.4,1196.4,1019,1202.1,1018.9L1202.1,1018.9z"/>
	<path class="st0" d="M1252.4,1025v-67.2h11.2l21,51.5h0.2l21-51.5h11.2v67.2h-7.8v-56.1h-0.2l-23,56.1h-2.5l-23.1-56.1h-0.2v56.1
		H1252.4z"/>
	<path class="st0" d="M1343.2,1025v-67.2h11.2l21,51.5h0.2l21-51.5h11.2v67.2h-7.8v-56.1h-0.2l-23.1,56.1h-2.5l-23.1-56.1h-0.2v56.1
		H1343.2z"/>
	<path class="st0" d="M1432.4,1003.1v-45.3h8v44.7c0,10.9,5.3,16.4,15.8,16.4c5.3,0,9.3-1.4,12-4.2s4.1-6.8,4.1-12v-45h7.9v45.3
		c0,7.7-2.1,13.5-6.3,17.4s-10.1,5.9-17.6,5.9s-13.4-2-17.6-5.9C1434.6,1016.6,1432.5,1010.8,1432.4,1003.1L1432.4,1003.1z"/>
	<path class="st0" d="M1518.8,1025v-59.9H1498v-7.3h49.4v7.3h-20.7v59.9H1518.8z"/>
	<path class="st0" d="M1566.8,1025v-67.2h40.4v7.3h-32.4v21.8h29.8v7.1h-29.8v23.7h32.4v7.3H1566.8z"/>
	<path class="st0" d="M20.8,1216.2v-59.9H0v-7.3h49.4v7.3H28.7v59.9H20.8z"/>
	<path class="st0" d="M93.5,1217.7c-3.6,0-7.2-0.6-10.6-2s-6.4-3.5-9-6.1c-3-3.2-5.2-7-6.5-11.1c-1.7-5.3-2.5-10.8-2.4-16.4
		c0-10.9,2.8-19.4,8.3-25.4c5.1-5.8,12.5-9.1,20.2-9c7.7,0,14.3,3.1,19.8,9.2s8.3,14.7,8.3,25.6c0.1,5.5-0.7,11-2.3,16.3
		c-1.2,4.1-3.4,7.9-6.4,11c-2.5,2.6-5.6,4.6-8.9,6C100.7,1217.1,97.1,1217.7,93.5,1217.7z M93.5,1210.2c5.6,0.1,10.9-2.5,14.2-7
		c3.7-4.7,5.5-11.6,5.5-20.7c0-8.8-1.9-15.6-5.6-20.3s-8.4-7-14.1-7c-5.6-0.1-10.9,2.4-14.3,6.8c-3.8,4.5-5.7,11.2-5.7,20.1
		c0,9.2,1.9,16.2,5.6,21C82.4,1207.7,87.8,1210.3,93.5,1210.2z"/>
	<path class="st0" d="M191.8,1216.2v-59.9H171v-7.3h49.4v7.3h-20.8v59.9H191.8z"/>
	<path class="st0" d="M264.5,1217.7c-3.6,0-7.2-0.6-10.6-2s-6.4-3.5-9-6.1c-3-3.2-5.2-7-6.5-11.1c-1.7-5.3-2.5-10.8-2.4-16.4
		c0-10.9,2.8-19.4,8.4-25.4c5.1-5.8,12.5-9.1,20.2-9c7.7,0,14.3,3.1,19.8,9.2s8.3,14.7,8.3,25.6c0.1,5.5-0.7,11-2.4,16.3
		c-1.2,4.1-3.4,7.9-6.4,11c-2.5,2.6-5.6,4.6-8.9,6C271.6,1217.1,268.1,1217.7,264.5,1217.7z M264.5,1210.2c5.6,0.1,10.9-2.5,14.2-7
		c3.6-4.7,5.5-11.6,5.5-20.7c0-8.8-1.9-15.6-5.6-20.3c-3.3-4.4-8.5-7-14.1-7c-5.6-0.1-10.9,2.4-14.4,6.8c-3.8,4.5-5.7,11.2-5.7,20.1
		c0,9.2,1.9,16.2,5.6,21C253.4,1207.7,258.8,1210.3,264.5,1210.2z"/>
	<path class="st0" d="M315.8,1216.2V1149h25.8c7,0,12.5,1.7,16.5,5s6,8.3,6,14.9c0,5.4-1.5,9.7-4.5,13c-3.2,3.4-7.4,5.6-12,6.2
		l15,28h-8.9l-14.6-27.5h-15.3v27.5L315.8,1216.2z M323.8,1181.7h17.4c4.5,0,8.1-1,10.9-3s4.1-5.2,4.1-9.7c0-8.4-5.1-12.7-15.2-12.7
		h-17.2L323.8,1181.7z"/>
	<path class="st0" d="M411.1,1217.7c-3.6,0-7.2-0.6-10.6-2s-6.4-3.5-9-6.1c-3-3.2-5.2-7-6.5-11.1c-1.7-5.3-2.5-10.8-2.4-16.4
		c0-10.9,2.8-19.4,8.4-25.4c5.1-5.8,12.5-9.1,20.2-9c7.7,0,14.3,3.1,19.8,9.2s8.3,14.7,8.3,25.6c0.1,5.5-0.7,11-2.4,16.3
		c-1.2,4.1-3.4,7.9-6.4,11c-2.5,2.6-5.6,4.6-8.9,6C418.2,1217.1,414.7,1217.7,411.1,1217.7z M411.1,1210.2c5.6,0.1,10.9-2.5,14.2-7
		c3.7-4.7,5.5-11.6,5.5-20.7c0-8.8-1.9-15.6-5.6-20.3c-3.3-4.4-8.5-7-14.1-7c-5.6-0.1-10.9,2.4-14.4,6.8c-3.8,4.5-5.7,11.2-5.7,20.1
		c0,9.2,1.9,16.2,5.6,21C400,1207.7,405.4,1210.3,411.1,1210.2z"/>
	<path class="st0" d="M462.4,1216.2V1149h8.6l30.6,54h0.2v-54h7.9v67.2h-8.4l-30.8-54h-0.2v54H462.4z"/>
	<path class="st0" d="M550.9,1216.2v-59.9h-20.8v-7.3h49.4v7.3h-20.7v59.9H550.9z"/>
	<path class="st0" d="M623.6,1217.7c-3.6,0-7.2-0.6-10.6-2s-6.4-3.5-9-6.1c-3-3.2-5.2-7-6.5-11.1c-1.7-5.3-2.5-10.8-2.4-16.4
		c0-10.9,2.8-19.4,8.3-25.4c5.1-5.8,12.5-9.1,20.2-9c7.7,0,14.3,3.1,19.8,9.2s8.3,14.7,8.3,25.6c0.1,5.5-0.7,11-2.3,16.3
		c-1.2,4.1-3.4,7.9-6.4,11c-2.5,2.6-5.6,4.6-8.9,6C630.8,1217.1,627.2,1217.7,623.6,1217.7L623.6,1217.7z M623.6,1210.2
		c5.6,0.1,10.9-2.5,14.2-7c3.7-4.7,5.5-11.6,5.5-20.7c0-8.8-1.9-15.6-5.6-20.3s-8.4-7-14.1-7c-5.6-0.1-10.9,2.4-14.3,6.8
		c-3.8,4.5-5.7,11.2-5.7,20.1c0,9.2,1.9,16.2,5.6,21C612.5,1207.7,617.9,1210.3,623.6,1210.2L623.6,1210.2z"/>
	<path class="st0" d="M707.8,1216.2V1149h21c3.7,0,7.4,0.6,10.8,2s6.6,3.4,9.2,6c3,3,5.2,6.6,6.6,10.5c1.7,4.8,2.5,9.9,2.5,15
		c0.1,5.4-0.7,10.9-2.5,16c-1.3,4-3.7,7.7-6.8,10.5c-2.7,2.4-5.9,4.2-9.4,5.4s-7.3,1.8-11,1.7L707.8,1216.2z M715.8,1208.9h11.8
		c14.6,0,21.9-8.8,21.9-26.4c0-8.4-1.9-14.9-5.7-19.4s-9-6.8-15.6-6.8h-12.4V1208.9z"/>
	<path class="st0" d="M771.5,1216.2l24.2-67.2h7.8l24.2,67.2h-8.1l-5-13.2h-30.1l-4.9,13.2H771.5z M786.9,1196.2h25.4l-12.7-36.5
		h-0.2L786.9,1196.2z"/>
	<path class="st0" d="M848.1,1216.2V1149h8v67.2H848.1z"/>
	<path class="st0" d="M883.6,1216.2V1149h8v59.9h29.2v7.3L883.6,1216.2z"/>
	<path class="st0" d="M946.5,1216.2v-28.3l-22.2-38.9h8.8l17.1,31.2h0.2l17.1-31.2h8.8l-22.2,38.9v28.3H946.5z"/>
	<path class="st0" d="M982.3,1216.2v-11.3h11.3v11.3H982.3z"/>
	<path class="st0" d="M1044.9,1216.2V1149h8v28.9h30V1149h7.9v67.2h-7.9V1185h-30v31.2H1044.9z"/>
	<path class="st0" d="M1142.5,1217.7c-3.6,0-7.2-0.6-10.6-2s-6.4-3.5-9-6.1c-3-3.2-5.2-7-6.5-11.1c-1.7-5.3-2.5-10.8-2.4-16.4
		c0-10.9,2.8-19.4,8.3-25.4c5.1-5.8,12.5-9.1,20.2-9c7.7,0,14.3,3.1,19.8,9.2s8.3,14.7,8.3,25.6c0.1,5.5-0.7,11-2.3,16.3
		c-1.2,4.1-3.4,7.9-6.4,11c-2.5,2.6-5.6,4.6-8.9,6C1149.6,1217.1,1146.1,1217.7,1142.5,1217.7z M1142.5,1210.2
		c5.6,0.1,10.9-2.5,14.2-7c3.6-4.7,5.5-11.6,5.5-20.7c0-8.8-1.9-15.6-5.6-20.3s-8.4-7-14.1-7c-5.6-0.1-10.9,2.4-14.3,6.8
		c-3.8,4.5-5.7,11.2-5.7,20.1c0,9.2,1.9,16.2,5.6,21C1131.4,1207.7,1136.8,1210.3,1142.5,1210.2z"/>
	<path class="st0" d="M1193.8,1216.2V1149h11.2l21,51.6h0.2l21-51.6h11.2v67.2h-7.8v-56.1h-0.2l-23.1,56.1h-2.4l-23.1-56.1h-0.2
		v56.1H1193.8z"/>
	<path class="st0" d="M1285.6,1216.2V1149h40.4v7.3h-32.4v21.8h29.8v7.1h-29.8v23.7h32.4v7.3L1285.6,1216.2z"/>
	<path class="st0" d="M1397.7,1216.2v-59.9h-20.8v-7.3h49.4v7.3h-20.7v59.9H1397.7z"/>
	<path class="st0" d="M1470.3,1217.7c-3.6,0-7.2-0.6-10.6-2s-6.4-3.5-9-6.1c-3-3.2-5.2-7-6.5-11.1c-1.7-5.3-2.5-10.8-2.4-16.4
		c0-10.9,2.8-19.4,8.3-25.4c5.1-5.8,12.5-9.1,20.2-9c7.7,0,14.3,3.1,19.8,9.2s8.3,14.7,8.3,25.6c0.1,5.5-0.7,11-2.4,16.3
		c-1.2,4.1-3.4,7.9-6.4,11c-2.5,2.6-5.6,4.6-8.9,6C1477.5,1217.1,1473.9,1217.7,1470.3,1217.7z M1470.3,1210.2
		c5.6,0.1,10.9-2.5,14.2-7c3.7-4.7,5.5-11.6,5.5-20.7c0-8.8-1.9-15.6-5.6-20.3c-3.3-4.4-8.5-7-14.1-7c-5.6-0.1-10.9,2.4-14.3,6.8
		c-3.8,4.5-5.7,11.2-5.7,20.1c0,9.2,1.9,16.2,5.6,21C1459.2,1207.7,1464.6,1210.3,1470.3,1210.2z"/>
	<path class="st0" d="M1547.3,1216.2l24.2-67.2h7.8l24.2,67.2h-8.1l-5-13.2h-30.1l-4.9,13.2H1547.3z M1562.7,1196.2h25.4l-12.7-36.5
		h-0.2L1562.7,1196.2z"/>
	<path class="st0" d="M6.8,1407.5v-67.2h8v28.9h30v-28.9h7.9v67.2h-7.9v-31.2h-30v31.2H6.8z"/>
	<path class="st0" d="M93.2,1409c-3.6,0-7.2-0.6-10.6-2s-6.4-3.5-9-6.1c-3-3.2-5.3-7-6.6-11.2c-1.7-5.3-2.5-10.8-2.4-16.4
		c0-10.9,2.8-19.4,8.4-25.4c5.1-5.8,12.5-9.1,20.2-9c7.7,0,14.3,3.1,19.8,9.2s8.3,14.7,8.3,25.6c0.1,5.5-0.7,11-2.3,16.3
		c-1.2,4.1-3.4,7.9-6.4,11c-2.5,2.6-5.6,4.6-8.9,6C100.3,1408.4,96.7,1409,93.2,1409z M93.2,1401.5c5.6,0.1,10.9-2.5,14.2-7
		c3.7-4.7,5.5-11.6,5.5-20.7c0-8.8-1.9-15.6-5.6-20.2c-3.3-4.4-8.5-7-14.1-7c-5.6-0.1-10.9,2.4-14.4,6.8c-3.8,4.5-5.7,11.2-5.7,20.1
		c0,9.2,1.9,16.2,5.6,21C82.1,1399,87.5,1401.6,93.2,1401.5L93.2,1401.5z"/>
	<path class="st0" d="M133.3,1407.5v-67.2h11.2l21,51.6h0.2l21-51.6H198v67.2h-7.8v-56.1H190l-23.1,56.1h-2.5l-23.1-56.1H141v56.1
		H133.3z"/>
	<path class="st0" d="M213.8,1407.5v-67.2h40.4v7.3h-32.5v21.8h29.8v7.1h-29.8v23.7h32.4v7.3L213.8,1407.5z"/>
	<path class="st0" d="M281.8,1407.5v-59.9H261v-7.3h49.4v7.3h-20.7v59.9H281.8z"/>
	<path class="st0" d="M343.2,1409c-3.6,0-7.2-0.6-10.6-2s-6.4-3.5-9-6.1c-3-3.2-5.2-7-6.5-11.1c-1.7-5.3-2.5-10.8-2.4-16.4
		c0-10.9,2.8-19.4,8.4-25.4c5.1-5.8,12.5-9.1,20.2-9c7.7,0,14.3,3.1,19.8,9.2s8.3,14.7,8.3,25.6c0.1,5.5-0.7,11-2.4,16.2
		c-1.2,4.1-3.4,7.9-6.4,11c-2.5,2.6-5.6,4.6-8.9,6C350.4,1408.3,346.8,1409,343.2,1409L343.2,1409z M343.2,1401.5
		c5.6,0.1,10.9-2.5,14.2-7c3.6-4.7,5.5-11.6,5.5-20.7c0-8.8-1.9-15.6-5.6-20.2s-8.4-7-14.1-7c-5.6-0.1-10.9,2.4-14.4,6.8
		c-3.8,4.5-5.7,11.2-5.7,20.1c0,9.2,1.9,16.2,5.6,21C332.1,1399,337.5,1401.6,343.2,1401.5L343.2,1401.5z"/>
	<path class="st0" d="M389,1407.5l-12.4-67.2h8.2l10.1,55.5h0.2l16.7-55.5h8.4l16.8,55.5h0.2l9.9-55.5h8.2l-12.4,67.2H433l-17-55.7
		h-0.2l-16.9,55.7H389z"/>
	<path class="st0" d="M466.2,1407.5v-67.2h8.6l30.6,54h0.2v-54h7.9v67.2h-8.4l-30.8-54h-0.2v54H466.2z"/>
	<path class="st0" d="M551,1407.5v-67.2h40.5v7.3H559v24.3h29.8v7H559v28.6L551,1407.5z"/>
	<path class="st0" d="M603,1407.5v-67.2h40.4v7.3H611v21.8h29.8v7.1H611v23.7h32.4v7.3L603,1407.5z"/>
	<path class="st0" d="M656.9,1407.5v-67.2h40.4v7.3h-32.4v21.8h29.8v7.1h-29.8v23.7h32.5v7.3L656.9,1407.5z"/>
	<path class="st0" d="M710.7,1407.5v-67.2h8v59.9h29.2v7.3L710.7,1407.5z"/>
	<path class="st0" d="M758,1407.5v-67.2h8v67.2H758z"/>
	<path class="st0" d="M782.2,1407.5v-67.2h8.6l30.6,54h0.2v-54h7.9v67.2h-8.4l-30.8-54h-0.2v54H782.2z"/>
	<path class="st0" d="M870,1409c-3.7,0-7.3-0.6-10.7-2s-6.5-3.5-9-6.1c-3-3.2-5.2-7-6.4-11.2c-1.6-5.3-2.4-10.8-2.3-16.4
		c0-10.9,2.8-19.3,8.3-25.3c5.1-5.8,12.4-9.1,20.1-9c6.1-0.2,12.1,2,16.7,6.1c4.6,4.2,7.6,9.8,8.4,16l-8,1.4c-2.2-10.7-8-16-17.2-16
		c-5.6-0.1-10.9,2.4-14.3,6.8c-3.8,4.5-5.7,11.2-5.7,20c0,9.2,1.9,16.2,5.6,21c3.3,4.6,8.7,7.3,14.5,7.2c5.6,0,9.9-1.7,13.2-5.2
		c3.2-3.5,4.7-8.3,4.6-14.4h-16.9v-7.3h24.9v6.5c0,8.7-2.4,15.5-7.1,20.4C883.9,1406.7,877.7,1409.1,870,1409L870,1409z"/>
	<path class="st0" d="M902.9,1407.5v-11.3h11.3v11.3H902.9z"/>
	<path class="st0" d="M943,1407.5v-67.2h8v28.9h30v-28.9h7.9v67.2H981v-31.2h-30v31.2H943z"/>
	<path class="st0" d="M1029.4,1409c-3.6,0-7.2-0.6-10.6-2s-6.4-3.5-9-6.1c-3-3.2-5.2-7-6.5-11.1c-1.7-5.3-2.5-10.8-2.4-16.4
		c0-10.9,2.8-19.4,8.3-25.4c5.1-5.8,12.5-9.1,20.2-9c7.7,0,14.3,3.1,19.8,9.2s8.3,14.7,8.3,25.6c0.1,5.5-0.7,11-2.3,16.3
		c-1.2,4.1-3.4,7.9-6.4,11c-2.5,2.6-5.6,4.6-8.9,6C1036.6,1408.4,1033,1409.1,1029.4,1409z M1029.4,1401.5c5.6,0.1,10.9-2.5,14.2-7
		c3.6-4.7,5.5-11.6,5.5-20.7c0-8.8-1.9-15.6-5.6-20.2c-3.3-4.4-8.5-7-14.1-7c-5.6-0.1-10.9,2.4-14.3,6.8c-3.8,4.5-5.7,11.2-5.7,20.1
		c0,9.2,1.9,16.2,5.6,21C1018.3,1399,1023.7,1401.6,1029.4,1401.5L1029.4,1401.5z"/>
	<path class="st0" d="M1069.6,1407.5v-67.2h11.2l21,51.6h0.2l21-51.6h11.2v67.2h-7.8v-56.1h-0.2l-23.1,56.1h-2.5l-23.1-56.1h-0.2
		v56.1H1069.6z"/>
	<path class="st0" d="M1150.1,1407.5v-67.2h40.4v7.3h-32.4v21.8h29.8v7.1h-29.8v23.7h32.4v7.3L1150.1,1407.5z"/>
	<path class="st0" d="M1239.7,1407.5v-59.9h-20.8v-7.3h49.4v7.3h-20.7v59.9H1239.7z"/>
	<path class="st0" d="M1301.1,1409c-3.6,0-7.2-0.6-10.6-2s-6.4-3.5-9-6.1c-3-3.2-5.2-7-6.5-11.1c-1.7-5.3-2.5-10.8-2.4-16.4
		c0-10.9,2.8-19.4,8.3-25.4c5.1-5.8,12.5-9.1,20.2-9c7.7,0,14.3,3.1,19.8,9.2s8.3,14.7,8.3,25.6c0.1,5.5-0.7,11-2.3,16.3
		c-1.2,4.1-3.4,7.9-6.4,11c-2.5,2.6-5.6,4.6-8.9,6C1308.3,1408.4,1304.7,1409.1,1301.1,1409z M1301.1,1401.5
		c5.6,0.1,10.9-2.5,14.2-7c3.7-4.7,5.5-11.6,5.5-20.7c0-8.8-1.9-15.6-5.6-20.2c-3.3-4.4-8.5-7-14.1-7c-5.6-0.1-10.9,2.4-14.3,6.8
		c-3.8,4.5-5.7,11.2-5.7,20.1c0,9.2,1.9,16.2,5.6,21C1290,1399,1295.4,1401.6,1301.1,1401.5L1301.1,1401.5z"/>
	<path class="st0" d="M1362.8,1407.5v-67.2h11.2l21,51.6h0.2l21-51.6h11.2v67.2h-7.8v-56.1h-0.2l-23.1,56.1h-2.4l-23.1-56.1h-0.2
		v56.1H1362.8z"/>
	<path class="st0" d="M1468.1,1409c-3.6,0-7.2-0.6-10.6-2s-6.4-3.5-9-6.1c-3-3.2-5.2-7-6.5-11.1c-1.7-5.3-2.5-10.8-2.4-16.4
		c0-10.9,2.8-19.4,8.3-25.4c5.1-5.8,12.5-9.1,20.2-9c7.7,0,14.3,3.1,19.8,9.2s8.3,14.7,8.3,25.6c0.1,5.5-0.7,11-2.3,16.3
		c-1.2,4.1-3.4,7.9-6.4,11c-2.5,2.6-5.6,4.6-8.9,6C1475.2,1408.4,1471.6,1409.1,1468.1,1409z M1468.1,1401.5
		c5.6,0.1,10.9-2.5,14.2-7c3.7-4.7,5.5-11.6,5.5-20.7c0-8.8-1.9-15.6-5.6-20.2s-8.4-7-14.1-7c-5.6-0.1-10.9,2.4-14.3,6.8
		c-3.8,4.5-5.7,11.2-5.7,20.1c0,9.2,1.9,16.2,5.6,21C1457,1399,1462.4,1401.6,1468.1,1401.5L1468.1,1401.5z"/>
	<path class="st0" d="M1508.2,1407.5v-67.2h25.8c7,0,12.5,1.7,16.5,5s6,8.3,6,14.9c0,5.4-1.5,9.7-4.5,13c-3.2,3.4-7.4,5.6-12,6.2
		l15,28h-9l-14.6-27.5h-15.3v27.5L1508.2,1407.5z M1516.2,1372.9h17.4c4.5,0,8.1-1,10.8-3c2.8-2,4.1-5.2,4.1-9.7
		c0-8.4-5.1-12.7-15.2-12.7h-17.2L1516.2,1372.9z"/>
	<path class="st0" d="M1567.5,1407.5v-67.2h40.4v7.3h-32.4v21.8h29.8v7.1h-29.8v23.7h32.4v7.3L1567.5,1407.5z"/>
	<path class="st0" d="M6.8,1598.8v-67.2h8v28.9h30v-28.9h7.9v67.2h-7.9v-31.2h-30v31.2H6.8z"/>
	<path class="st0" d="M98.8,1600.2c-3.6,0-7.2-0.6-10.6-2s-6.4-3.5-9-6.1c-3-3.2-5.2-7-6.5-11.1c-1.7-5.3-2.5-10.8-2.4-16.4
		c0-10.9,2.8-19.4,8.4-25.4c5.1-5.8,12.4-9.1,20.2-9c7.7,0,14.3,3.1,19.8,9.2s8.3,14.7,8.3,25.6c0.1,5.5-0.7,11-2.3,16.3
		c-1.2,4.1-3.4,7.9-6.4,11c-2.5,2.6-5.6,4.6-8.9,6C106,1599.6,102.4,1600.3,98.8,1600.2z M98.8,1592.7c5.6,0.1,10.9-2.5,14.2-7
		c3.7-4.7,5.5-11.6,5.5-20.7c0-8.8-1.9-15.6-5.6-20.3c-3.3-4.4-8.5-7-14.1-7c-5.6-0.1-10.9,2.4-14.4,6.8c-3.8,4.6-5.7,11.2-5.7,20.1
		c0,9.2,1.9,16.2,5.6,21C87.7,1590.2,93.1,1592.9,98.8,1592.7z"/>
	<path class="st0" d="M144.6,1598.8v-67.2h11.2l21,51.6h0.2l21-51.6h11.2v67.2h-7.8v-56.1h-0.2l-23.1,56.1h-2.5l-23.1-56.1h-0.2
		v56.1H144.6z"/>
	<path class="st0" d="M230.9,1598.8v-67.2h40.4v7.3h-32.5v21.8h29.8v7.1h-29.8v23.7h32.5v7.3L230.9,1598.8z"/>
	<path class="st0" d="M290.4,1598.8v-11.3h11.3v11.3H290.4z"/>
	<path class="st0" d="M378.9,1572.1l13.4,3c-1.1,7.8-3.9,13.9-8.5,18.4s-10.6,6.7-18,6.7c-8.7,0-15.7-3-21.1-9s-8.1-15-8.1-27.1
		c0-10.6,2.9-19,8.6-25c5.2-5.8,12.7-9.1,20.5-9c6.5-0.2,12.8,2.2,17.6,6.5s7.6,10.1,8.4,17.4l-12.9,2c-0.4-3.6-1.8-7.1-4-10
		c-2.1-2.6-5.1-3.9-9-3.9c-4.4,0-8.2,1.9-11.2,5.8c-3.1,3.8-4.6,9.2-4.6,16.2c0,8.2,1.5,14.3,4.5,18.2c2.6,3.7,6.8,5.9,11.4,5.9
		C373.3,1588.2,377.7,1582.8,378.9,1572.1L378.9,1572.1z"/>
	<path class="st0" d="M442.8,1598.2c-7,2.7-14.7,2.7-21.7,0c-7.7-3-13.5-9.3-15.9-17.2c-1.7-5.3-2.5-10.8-2.5-16.4
		c-0.1-5.1,0.8-10.2,2.5-15.1c1.4-4.1,3.6-7.8,6.6-10.9c2.7-2.7,5.8-4.9,9.3-6.3c6.9-2.9,14.7-2.9,21.6,0
		c7.5,3.2,13.4,9.5,15.9,17.2c1.7,4.8,2.5,9.9,2.5,15.1c0.1,5.6-0.7,11.1-2.5,16.4C456.3,1588.9,450.5,1595.2,442.8,1598.2
		L442.8,1598.2z M420.6,1582.6c4.7,6.3,13.5,7.6,19.8,2.9c1.1-0.8,2-1.8,2.9-2.8c3-3.7,4.4-9.8,4.4-18.1c0-7.3-1.5-12.9-4.6-16.7
		c-3-3.8-6.8-5.8-11.1-5.8c-4.5,0-8.6,2.1-11.2,5.8c-3,3.8-4.5,9.4-4.5,16.7C416.2,1572.8,417.7,1578.8,420.6,1582.6L420.6,1582.6z"
		/>
	<path class="st0" d="M475.9,1598.8v-67.2h13.4l19.5,43.6h0.2l19.5-43.6h13.4v67.2h-12.7v-41.3H529l-19.1,41.3h-2.1l-19.1-41.3h-0.2
		v41.3H475.9z"/>
	<path class="st0" d="M560.5,1598.8v-67.2H603v12h-29.5v15.1h26.9v11.5h-26.9v16.6H603v12H560.5z"/>
	<path class="st0" d="M646.5,1598.8v-67.2h13v27.1h23v-27.1h13v67.2h-13v-29.1h-23v29.1H646.5z"/>
	<path class="st0" d="M750.3,1598.2c-7,2.7-14.7,2.7-21.7,0c-7.6-3-13.5-9.3-15.9-17.2c-1.7-5.3-2.5-10.8-2.4-16.4
		c-0.1-5.1,0.8-10.2,2.4-15.1c1.4-4.1,3.6-7.8,6.6-10.9c2.7-2.7,5.8-4.9,9.3-6.3c6.9-2.9,14.7-2.9,21.6,0c3.5,1.5,6.7,3.6,9.3,6.3
		c3,3.1,5.2,6.8,6.6,10.9c1.7,4.8,2.5,9.9,2.4,15.1c0.1,5.6-0.7,11.1-2.4,16.4C763.8,1588.9,758,1595.2,750.3,1598.2L750.3,1598.2z
		 M728.1,1582.6c4.7,6.3,13.5,7.6,19.8,2.9c1.1-0.8,2-1.8,2.8-2.8c2.9-3.7,4.4-9.8,4.4-18.1c0-7.3-1.5-12.9-4.6-16.7
		c-3-3.8-6.8-5.8-11.2-5.8c-4.5,0-8.6,2.1-11.2,5.8c-3,3.8-4.5,9.4-4.5,16.7C723.7,1572.8,725.2,1578.8,728.1,1582.6z"/>
	<path class="st0" d="M783.4,1598.8v-67.2h13.3l19.5,43.6h0.2l19.5-43.6h13.4v67.2h-12.7v-41.3h-0.2l-19.1,41.3h-2.1l-19.1-41.3H796
		v41.3H783.4z"/>
	<path class="st0" d="M868,1598.8v-67.2h42.5v12H881v15.1h26.9v11.5H881v16.6h29.6v12H868z"/>
	<path class="st0" d="M967,1598.8v-55.2h-19.7v-12h52.3v12h-19.7v55.2H967z"/>
	<path class="st0" d="M1046.7,1598.2c-7,2.7-14.7,2.7-21.7,0c-7.7-3-13.5-9.4-15.9-17.2c-1.7-5.3-2.6-10.8-2.5-16.4
		c-0.1-5.1,0.8-10.2,2.5-15.1c1.4-4.1,3.6-7.8,6.6-10.9c2.7-2.7,5.8-4.9,9.3-6.3c6.9-2.9,14.7-2.9,21.6,0c3.5,1.5,6.7,3.6,9.3,6.3
		c3,3.1,5.2,6.8,6.6,10.9c1.7,4.8,2.5,9.9,2.4,15.1c0.1,5.6-0.7,11.1-2.4,16.4C1060.3,1588.8,1054.4,1595.2,1046.7,1598.2z
		 M1024.6,1582.6c4.7,6.3,13.5,7.6,19.8,2.9c1.1-0.8,2-1.8,2.8-2.8c2.9-3.7,4.4-9.8,4.4-18.1c0-7.3-1.5-12.9-4.6-16.7
		c-3-3.8-6.8-5.8-11.2-5.8c-4.5,0-8.6,2.1-11.2,5.8c-3,3.8-4.5,9.4-4.5,16.7C1020.2,1572.8,1021.6,1578.8,1024.6,1582.6
		L1024.6,1582.6z"/>
	<path class="st0" d="M1107.1,1598.8v-67.2h13v27.1h23v-27.1h13v67.2h-13v-29.1h-23v29.1H1107.1z"/>
	<path class="st0" d="M1213.7,1598.8l-3.8-11h-25.6l-3.8,11h-12.9l24.3-67.2h11l24.2,67.2H1213.7z M1197,1550.8l-9.1,26.2h18.3
		l-9-26.2H1197z"/>
	<path class="st0" d="M1238.4,1598.8v-67.2h13.3l19.5,43.6h0.2l19.5-43.6h13.4v67.2h-12.7v-41.3h-0.2l-19.1,41.3h-2.1l-19.1-41.3
		h-0.2v41.3H1238.4z"/>
	<path class="st0" d="M1323.5,1598.8v-67.2h13v67.2H1323.5z"/>
	<path class="st0" d="M1355.6,1598.8v-67.2h13v55.2h27.7v12H1355.6z"/>
	<path class="st0" d="M1412,1598.8v-55.2h-19.7v-12h52.3v12H1425v55.2H1412z"/>
	<path class="st0" d="M1491.8,1598.2c-7,2.7-14.7,2.7-21.7,0c-7.7-3-13.5-9.4-15.9-17.2c-1.7-5.3-2.5-10.8-2.4-16.4
		c-0.1-5.1,0.8-10.2,2.4-15.1c2.6-7.8,8.4-14.1,15.9-17.2c6.9-2.9,14.7-2.9,21.6,0c3.5,1.5,6.7,3.6,9.3,6.3c3,3.1,5.2,6.8,6.6,10.9
		c1.7,4.8,2.5,9.9,2.4,15.1c0.1,5.6-0.7,11.1-2.4,16.4C1505.3,1588.8,1499.5,1595.2,1491.8,1598.2L1491.8,1598.2z M1469.6,1582.6
		c4.7,6.3,13.5,7.6,19.8,2.9c1.1-0.8,2-1.8,2.9-2.8c2.9-3.7,4.4-9.8,4.4-18.1c0-7.3-1.5-12.9-4.6-16.7c-3-3.8-6.8-5.8-11.2-5.8
		c-4.5,0-8.6,2.1-11.2,5.8c-3,3.8-4.5,9.4-4.5,16.7C1465.2,1572.8,1466.7,1578.8,1469.6,1582.6L1469.6,1582.6z"/>
	<path class="st0" d="M1524.9,1598.8v-67.2h13l24.6,44.1h0.2v-44.1h13v67.2h-12.8l-24.9-44.1h-0.2v44.1H1524.9z"/>
	<path class="st0" d="M1594.3,1598.8v-13.6h14.3v13.6H1594.3z"/>
</g>
</svg>
