<svg enable-background="new 0 0 20.5 30" height="30" viewBox="0 0 20.5 30" width="20.5" xmlns="http://www.w3.org/2000/svg"><g fill="#fff"><path d="m19.7 14c0-.1.1-.2.1-.2.5-1.2.8-2.5.7-3.8-.2-5.7-5-10.2-10.6-10-5.4.2-9.7 4.6-9.9 10 0 1.3.2 2.6.7 3.8 0 .1 0 .2.1.2l.2.3.3.6 8.2 14.7c.2.4.7.5 1.1.3l.3-.3 8.2-14.7c.1-.2.2-.4.3-.6zm-9.5-12.7c4.7 0 8.6 3.9 8.6 8.7 0 1.3-.3 2.5-.9 3.6l-7.8 13.9-7.6-13.9c-.6-1.1-.9-2.3-.9-3.6.1-4.8 3.9-8.7 8.6-8.7"/><path d="m13 13.6c2.3-1.5 2.9-4.6 1.4-7-1.5-2.3-4.6-2.9-6.9-1.4s-2.9 4.6-1.4 7c.9 1.4 2.5 2.2 4.1 2.2 1 0 2-.3 2.8-.8m-2.8-7.6c1.8 0 3.3 1.5 3.3 3.3s-1.5 3.3-3.3 3.3-3.3-1.5-3.3-3.3c0-1.8 1.5-3.3 3.3-3.3"/></g></svg>